<svg width="69" height="69" viewBox="0 0 69 69" fill="none" xmlns="http://www.w3.org/2000/svg">
<rect x="0.499756" width="68.5003" height="68.5003" rx="16" fill="#648BF0"/>
<path d="M45.5575 14H23.4425C22.2643 14 21.1343 14.4798 20.3012 15.3338C19.4681 16.1877 19 17.346 19 18.5537V49.4463C19 50.654 19.4681 51.8123 20.3012 52.6662C21.1343 53.5202 22.2643 54 23.4425 54H45.5575C46.7357 54 47.8657 53.5202 48.6988 52.6662C49.532 51.8123 50 50.654 50 49.4463V18.5537C50 17.346 49.532 16.1877 48.6988 15.3338C47.8657 14.4798 46.7357 14 45.5575 14ZM23.176 29.3643C23.1748 29.11 23.2227 28.8579 23.3168 28.6226C23.4109 28.3873 23.5495 28.1734 23.7245 27.9931C23.8996 27.8129 24.1076 27.6698 24.3367 27.5722C24.5658 27.4746 24.8115 27.4244 25.0596 27.4244H25.726C24.9918 26.6047 24.5858 25.5317 24.5887 24.4189C24.5887 23.2281 25.0502 22.0861 25.8717 21.244C26.6932 20.402 27.8073 19.929 28.969 19.929C30.1308 19.929 31.2449 20.402 32.0664 21.244C32.8879 22.0861 33.3494 23.2281 33.3494 24.4189C33.3523 25.5317 32.9463 26.6047 32.2121 27.4244H32.8429C33.091 27.4244 33.3367 27.4746 33.5658 27.5722C33.7949 27.6698 34.003 27.8129 34.178 27.9931C34.353 28.1734 34.4916 28.3873 34.5857 28.6226C34.6799 28.8579 34.7277 29.11 34.7266 29.3643V32.6157C34.7272 33.1084 34.5432 33.5826 34.2125 33.9403C33.8817 34.2979 33.4296 34.5117 32.9496 34.5373H24.953C24.4737 34.5095 24.0228 34.2951 23.6925 33.9379C23.3622 33.5807 23.1775 33.1078 23.176 32.6157V29.3643ZM44.0559 48.0893H24.953C24.4817 48.0893 24.0297 47.8974 23.6965 47.5558C23.3632 47.2142 23.176 46.7509 23.176 46.2678C23.176 45.7847 23.3632 45.3214 23.6965 44.9798C24.0297 44.6382 24.4817 44.4463 24.953 44.4463H44.0559C44.5272 44.4463 44.9792 44.6382 45.3124 44.9798C45.6457 45.3214 45.8329 45.7847 45.8329 46.2678C45.8329 46.7509 45.6457 47.2142 45.3124 47.5558C44.9792 47.8974 44.5272 48.0893 44.0559 48.0893ZM44.0559 41.2587H24.953C24.4817 41.2587 24.0297 41.0667 23.6965 40.7252C23.3632 40.3836 23.176 39.9202 23.176 39.4372C23.176 38.9541 23.3632 38.4908 23.6965 38.1492C24.0297 37.8076 24.4817 37.6157 24.953 37.6157H44.0559C44.5272 37.6157 44.9792 37.8076 45.3124 38.1492C45.6457 38.4908 45.8329 38.9541 45.8329 39.4372C45.8329 39.9202 45.6457 40.3836 45.3124 40.7252C44.9792 41.0667 44.5272 41.2587 44.0559 41.2587ZM44.0559 34.4281H38.2806C37.8093 34.4281 37.3573 34.2361 37.0241 33.8946C36.6908 33.553 36.5036 33.0896 36.5036 32.6066C36.5036 32.1235 36.6908 31.6602 37.0241 31.3186C37.3573 30.977 37.8093 30.7851 38.2806 30.7851H44.0559C44.5272 30.7851 44.9792 30.977 45.3124 31.3186C45.6457 31.6602 45.8329 32.1235 45.8329 32.6066C45.8329 33.0896 45.6457 33.553 45.3124 33.8946C44.9792 34.2361 44.5272 34.4281 44.0559 34.4281Z" fill="#EFF3FD"/>
</svg>
