<svg width="69" height="69" viewBox="0 0 69 69" fill="none" xmlns="http://www.w3.org/2000/svg">
<rect x="1" y="1" width="66.5003" height="66.5003" rx="15" fill="#648BF0" stroke="#648BF0" stroke-width="2"/>
<rect width="45" height="40" transform="translate(11 14)" fill="#648BF0"/>
<path d="M52.8572 23.8736H54.6943C54.8127 23.8734 54.9286 23.8399 55.0288 23.7768C55.129 23.7137 55.2095 23.6237 55.2609 23.5169C55.3124 23.4102 55.3327 23.2911 55.3197 23.1733C55.3066 23.0556 55.2607 22.9438 55.1872 22.851L52.8572 19.9148L46.5714 12H20.4286L14.1429 19.9148L11.8114 22.851C11.7378 22.9439 11.6919 23.0558 11.6789 23.1737C11.6659 23.2916 11.6864 23.4108 11.738 23.5176C11.7896 23.6244 11.8702 23.7144 11.9707 23.7774C12.0711 23.8404 12.1872 23.8737 12.3057 23.8736H14.1429V47.7108H13.1429C12.5745 47.7108 12.0295 47.9368 11.6276 48.3392C11.2258 48.7415 11 49.2872 11 49.8561C11 50.4251 11.2258 50.9708 11.6276 51.3731C12.0295 51.7754 12.5745 52.0014 13.1429 52.0014H53.8572C54.4255 52.0014 54.9705 51.7754 55.3724 51.3731C55.7742 50.9708 56 50.4251 56 49.8561C56 49.2872 55.7742 48.7415 55.3724 48.3392C54.9705 47.9368 54.4255 47.7108 53.8572 47.7108H52.8572V23.8736ZM27.7857 44.0523V47.5206H18.4286V24.2082H48.5714V47.5206H39.2143V44.0566C39.2124 43.3751 38.9406 42.7221 38.4586 42.2409C37.9766 41.7597 37.3236 41.4894 36.6429 41.4894H30.3443C29.6658 41.4928 29.0161 41.7646 28.5368 42.2454C28.0576 42.7263 27.7876 43.3773 27.7857 44.0566V44.0523Z" fill="#EFF3FD"/>
<path d="M24.1585 27.186H21.4128C20.9876 27.186 20.6428 27.5312 20.6428 27.9569V30.7058C20.6428 31.1315 20.9876 31.4767 21.4128 31.4767H24.1585C24.5838 31.4767 24.9285 31.1315 24.9285 30.7058V27.9569C24.9285 27.5312 24.5838 27.186 24.1585 27.186Z" fill="#EFF3FD"/>
<path d="M31.3014 27.186H28.5557C28.1304 27.186 27.7857 27.5312 27.7857 27.9569V30.7058C27.7857 31.1315 28.1304 31.4767 28.5557 31.4767H31.3014C31.7267 31.4767 32.0714 31.1315 32.0714 30.7058V27.9569C32.0714 27.5312 31.7267 27.186 31.3014 27.186Z" fill="#EFF3FD"/>
<path d="M38.4443 27.186H35.6986C35.2733 27.186 34.9286 27.5312 34.9286 27.9569V30.7058C34.9286 31.1315 35.2733 31.4767 35.6986 31.4767H38.4443C38.8696 31.4767 39.2143 31.1315 39.2143 30.7058V27.9569C39.2143 27.5312 38.8696 27.186 38.4443 27.186Z" fill="#EFF3FD"/>
<path d="M45.5871 27.186H42.8414C42.4162 27.186 42.0714 27.5312 42.0714 27.9569V30.7058C42.0714 31.1315 42.4162 31.4767 42.8414 31.4767H45.5871C46.0124 31.4767 46.3571 31.1315 46.3571 30.7058V27.9569C46.3571 27.5312 46.0124 27.186 45.5871 27.186Z" fill="#EFF3FD"/>
<path d="M24.1585 34.3369H21.4128C20.9876 34.3369 20.6428 34.6821 20.6428 35.1078V37.8567C20.6428 38.2824 20.9876 38.6275 21.4128 38.6275H24.1585C24.5838 38.6275 24.9285 38.2824 24.9285 37.8567V35.1078C24.9285 34.6821 24.5838 34.3369 24.1585 34.3369Z" fill="#EFF3FD"/>
<path d="M31.3014 34.3369H28.5557C28.1304 34.3369 27.7857 34.6821 27.7857 35.1078V37.8567C27.7857 38.2824 28.1304 38.6275 28.5557 38.6275H31.3014C31.7267 38.6275 32.0714 38.2824 32.0714 37.8567V35.1078C32.0714 34.6821 31.7267 34.3369 31.3014 34.3369Z" fill="#EFF3FD"/>
<path d="M38.4443 34.3369H35.6986C35.2733 34.3369 34.9286 34.6821 34.9286 35.1078V37.8567C34.9286 38.2824 35.2733 38.6275 35.6986 38.6275H38.4443C38.8696 38.6275 39.2143 38.2824 39.2143 37.8567V35.1078C39.2143 34.6821 38.8696 34.3369 38.4443 34.3369Z" fill="#EFF3FD"/>
<path d="M45.5871 34.3369H42.8414C42.4162 34.3369 42.0714 34.6821 42.0714 35.1078V37.8567C42.0714 38.2824 42.4162 38.6275 42.8414 38.6275H45.5871C46.0124 38.6275 46.3571 38.2824 46.3571 37.8567V35.1078C46.3571 34.6821 46.0124 34.3369 45.5871 34.3369Z" fill="#EFF3FD"/>
<path d="M24.1585 41.488H21.4128C20.9876 41.488 20.6428 41.8332 20.6428 42.2589V45.0078C20.6428 45.4335 20.9876 45.7787 21.4128 45.7787H24.1585C24.5838 45.7787 24.9285 45.4335 24.9285 45.0078V42.2589C24.9285 41.8332 24.5838 41.488 24.1585 41.488Z" fill="#EFF3FD"/>
<path d="M45.5871 41.488H42.8414C42.4162 41.488 42.0714 41.8332 42.0714 42.2589V45.0078C42.0714 45.4335 42.4162 45.7787 42.8414 45.7787H45.5871C46.0124 45.7787 46.3571 45.4335 46.3571 45.0078V42.2589C46.3571 41.8332 46.0124 41.488 45.5871 41.488Z" fill="#EFF3FD"/>
</svg>
