<svg width="69" height="69" viewBox="0 0 69 69" fill="none" xmlns="http://www.w3.org/2000/svg">
<rect x="1.10205" y="1" width="66.5003" height="66.5003" rx="15" fill="#648BF0" stroke="#648BF0" stroke-width="2"/>
<g clip-path="url(#clip0_256_6)">
<path d="M18.0767 26.365L32.2433 33.6983C32.7822 33.9399 33.3687 34.065 33.9622 34.065C34.5558 34.065 35.1423 33.9399 35.6811 33.6983L49.8478 26.365C50.7733 25.87 51.6422 24 49.8478 24H17.9822C16.2822 24 17.17 25.87 18.0767 26.365ZM50.1878 30.3983L35.6055 37.7317C35.0635 37.9619 34.4783 38.0807 33.8867 38.0807C33.295 38.0807 32.7098 37.9619 32.1678 37.7317L17.8311 30.3983C17.0944 30.0133 17.0944 30.3983 17.0944 30.8017V44.1667C17.1741 44.6248 17.3988 45.0475 17.7373 45.3761C18.0758 45.7046 18.5113 45.9227 18.9833 46H49.2055C49.6776 45.9227 50.1131 45.7046 50.4516 45.3761C50.7901 45.0475 51.0148 44.6248 51.0944 44.1667V30.8017C51 30.4533 51 30.0133 50.2633 30.3983H50.1878Z" fill="#EFF3FD"/>
</g>
<defs>
<clipPath id="clip0_256_6">
<rect width="34" height="22" fill="white" transform="translate(17 24)"/>
</clipPath>
</defs>
</svg>
