<svg width="8" height="8" viewBox="0 0 8 8" fill="none" xmlns="http://www.w3.org/2000/svg">
<path d="M3.73741 7.808C3.56408 7.808 3.47741 7.72133 3.47741 7.548L3.50341 5.442L1.68341 6.534C1.52741 6.62067 1.40608 6.586 1.31941 6.43L0.773409 5.442C0.686742 5.286 0.721409 5.16467 0.877409 5.078L2.69741 4.064L0.877409 3.05C0.721409 2.96333 0.686742 2.842 0.773409 2.686L1.31941 1.698C1.40608 1.542 1.52741 1.50733 1.68341 1.594L3.50341 2.686L3.47741 0.58C3.47741 0.406666 3.56408 0.32 3.73741 0.32H4.85541C5.02874 0.32 5.11541 0.406666 5.11541 0.58L5.08941 2.686L6.90941 1.594C7.06541 1.50733 7.18674 1.542 7.27341 1.698L7.81941 2.686C7.90608 2.842 7.87141 2.96333 7.71541 3.05L5.89541 4.064L7.71541 5.078C7.87141 5.16467 7.90608 5.286 7.81941 5.442L7.27341 6.43C7.18674 6.586 7.06541 6.62067 6.90941 6.534L5.08941 5.442L5.11541 7.548C5.11541 7.72133 5.02874 7.808 4.85541 7.808H3.73741Z" fill="#F3756C"/>
</svg>
