<?xml version="1.0" encoding="UTF-8" ?>
<!DOCTYPE svg PUBLIC "-//W3C//DTD SVG 1.1//EN" "http://www.w3.org/Graphics/SVG/1.1/DTD/svg11.dtd">
<svg width="1042pt" height="1042pt" viewBox="0 0 1042 1042" version="1.1" xmlns="http://www.w3.org/2000/svg">
<g id="#fefefeff">
<path fill="#fefefe" opacity="1.00" d=" M 472.42 167.93 C 521.70 208.40 571.21 248.60 620.61 288.92 C 620.62 345.27 620.39 401.63 620.31 457.98 C 620.10 493.48 620.37 528.99 619.89 564.49 C 613.64 559.28 607.03 554.51 600.76 549.33 C 600.84 466.56 600.75 383.78 600.81 301.00 C 600.71 299.53 601.01 297.99 600.56 296.57 C 565.35 268.01 529.94 239.68 494.77 211.06 C 494.59 243.53 494.17 276.00 494.21 308.46 C 487.56 313.81 480.42 318.52 473.69 323.77 C 473.32 271.82 472.59 219.88 472.42 167.93 Z" />
<path fill="#fefefe" opacity="1.00" d=" M 304.85 513.00 C 331.29 491.23 357.70 469.43 384.16 447.70 C 384.25 456.59 384.10 465.49 384.25 474.38 C 364.76 491.41 344.95 508.08 325.32 524.94 C 325.45 560.55 325.95 596.16 325.80 631.77 C 318.50 637.07 311.59 642.89 304.27 648.15 C 304.36 603.10 304.67 558.05 304.85 513.00 Z" />
<path fill="#fefefe" opacity="1.00" d=" M 311.71 661.88 C 380.17 611.83 448.66 561.81 517.10 511.74 C 588.51 563.51 659.95 615.22 731.37 666.97 C 717.90 667.01 704.43 667.01 690.95 666.97 C 661.29 645.02 631.37 623.40 601.63 601.55 C 573.15 580.84 544.85 559.88 516.28 539.30 C 459.13 581.81 401.73 623.98 344.44 666.30 C 336.64 666.39 328.84 666.58 321.05 666.75 C 317.67 666.89 314.29 665.99 310.94 666.75 C 308.97 666.87 307.00 666.99 305.04 667.14 C 306.92 664.99 309.47 663.61 311.71 661.88 Z" />
<path fill="#fefefe" opacity="1.00" d=" M 500.25 587.75 C 504.25 587.74 508.24 587.74 512.25 587.75 C 512.25 591.75 512.25 595.75 512.24 599.75 C 508.24 599.74 504.24 599.75 500.25 599.75 C 500.25 595.74 500.25 591.75 500.25 587.75 Z" />
<path fill="#fefefe" opacity="1.00" d=" M 524.25 599.75 C 524.27 595.73 524.16 591.71 524.34 587.69 C 528.30 587.78 532.27 587.74 536.25 587.75 C 536.25 591.75 536.25 595.75 536.24 599.75 C 532.24 599.74 528.25 599.75 524.25 599.75 Z" />
<path fill="#fefefe" opacity="1.00" d=" M 500.25 608.76 C 504.24 608.75 508.24 608.75 512.25 608.75 C 512.24 612.75 512.27 616.76 512.22 620.77 C 508.22 620.74 504.24 620.75 500.25 620.75 C 500.25 616.75 500.25 612.75 500.25 608.76 Z" />
<path fill="#fefefe" opacity="1.00" d=" M 524.25 608.76 C 528.24 608.75 532.24 608.75 536.25 608.75 C 536.25 612.75 536.25 616.75 536.24 620.75 C 532.24 620.75 528.24 620.75 524.25 620.75 C 524.25 616.75 524.25 612.75 524.25 608.76 Z" />
<path fill="#fefefe" opacity="1.00" d=" M 305.42 812.18 C 311.04 812.17 316.66 812.14 322.28 812.21 C 322.28 813.72 322.28 815.24 322.29 816.78 C 318.48 816.86 314.67 816.82 310.87 816.83 C 310.86 818.69 310.85 820.55 310.85 822.43 C 314.05 822.48 317.25 822.46 320.46 822.48 C 320.46 824.00 320.46 825.53 320.46 827.07 C 317.26 827.08 314.06 827.07 310.87 827.08 C 310.85 830.38 310.86 833.68 310.85 837.00 C 309.03 836.99 307.21 836.98 305.40 836.97 C 305.42 828.71 305.39 820.45 305.42 812.18 Z" />
<path fill="#fefefe" opacity="1.00" d=" M 379.02 815.14 C 383.37 809.83 393.63 810.74 396.15 817.48 C 394.62 818.09 393.09 818.70 391.56 819.30 C 389.95 816.04 384.45 815.28 383.00 819.02 C 382.36 822.87 381.98 827.16 383.36 830.88 C 385.86 834.60 392.35 832.10 391.48 827.49 C 390.10 827.45 388.72 827.43 387.35 827.43 C 387.34 826.01 387.34 824.61 387.35 823.22 C 390.49 823.19 393.62 823.19 396.77 823.22 C 396.68 826.78 397.07 830.75 394.84 833.80 C 391.75 837.97 385.36 838.39 381.10 835.91 C 378.05 834.12 377.04 830.35 377.02 827.04 C 377.00 823.04 376.53 818.57 379.02 815.14 Z" />
<path fill="#fefefe" opacity="1.00" d=" M 494.52 812.17 C 496.24 812.16 497.96 812.17 499.69 812.19 C 499.99 818.96 499.15 825.91 500.10 832.58 C 500.67 832.71 501.81 832.97 502.38 833.10 C 502.38 834.48 502.38 835.87 502.39 837.28 C 499.64 837.26 495.54 837.50 494.78 834.06 C 494.15 826.79 494.65 819.46 494.52 812.17 Z" />
<path fill="#fefefe" opacity="1.00" d=" M 514.59 818.14 C 516.50 809.81 530.11 809.59 532.57 817.66 C 531.04 818.28 529.52 818.92 528.00 819.58 C 526.89 817.86 525.29 815.98 522.98 816.57 C 519.46 817.01 519.45 821.21 519.49 823.94 C 519.64 826.79 518.89 830.81 521.99 832.38 C 524.53 833.48 526.83 831.71 528.04 829.58 C 529.59 830.26 531.14 830.96 532.68 831.69 C 529.93 839.08 517.68 839.51 514.92 831.99 C 513.54 827.56 513.68 822.64 514.59 818.14 Z" />
<path fill="#fefefe" opacity="1.00" d=" M 671.08 812.17 C 672.80 812.17 674.53 812.17 676.27 812.20 C 676.25 813.63 676.25 815.07 676.25 816.52 C 674.53 816.52 672.82 816.52 671.12 816.54 C 671.09 815.07 671.07 813.62 671.08 812.17 Z" />
<path fill="#fefefe" opacity="1.00" d=" M 594.71 814.00 C 596.41 813.99 598.13 814.00 599.84 814.01 C 599.85 815.77 599.85 817.53 599.87 819.31 C 600.58 819.32 602.01 819.34 602.73 819.35 C 602.72 820.58 602.72 821.82 602.73 823.07 C 601.77 823.08 600.81 823.10 599.87 823.13 C 600.06 826.26 599.38 829.56 600.25 832.60 C 600.87 832.72 602.11 832.95 602.73 833.07 C 602.72 834.46 602.73 835.86 602.73 837.27 C 600.16 837.16 596.50 837.62 595.27 834.71 C 594.15 831.00 594.86 827.03 594.73 823.22 C 594.30 823.17 593.44 823.08 593.01 823.03 C 593.00 822.12 593.00 820.30 593.00 819.39 C 593.42 819.36 594.26 819.31 594.68 819.28 C 594.68 817.51 594.69 815.75 594.71 814.00 Z" />
<path fill="#fefefe" opacity="1.00" d=" M 659.21 814.01 C 660.91 814.00 662.62 813.99 664.34 814.00 C 664.34 815.76 664.35 817.53 664.37 819.31 C 665.08 819.32 666.51 819.34 667.22 819.34 C 667.22 820.28 667.23 822.15 667.23 823.09 C 666.51 823.10 665.08 823.12 664.36 823.13 C 664.37 825.78 664.29 828.44 664.38 831.11 C 663.98 832.91 666.07 832.87 667.23 833.05 C 667.22 834.45 667.22 835.86 667.23 837.28 C 664.56 837.19 660.70 837.58 659.65 834.41 C 658.74 830.74 659.36 826.90 659.19 823.16 L 657.52 823.04 C 657.51 822.18 657.49 820.47 657.48 819.62 C 660.42 819.49 658.78 815.92 659.21 814.01 Z" />
<path fill="#fefefe" opacity="1.00" d=" M 328.41 819.56 C 332.37 818.03 338.04 819.09 339.68 823.46 C 340.74 826.68 340.76 830.38 339.40 833.52 C 337.11 837.86 330.82 838.44 326.95 836.02 C 323.69 833.88 323.42 829.48 323.82 825.98 C 324.02 823.19 325.70 820.48 328.41 819.56 M 330.44 823.63 C 328.30 825.29 328.93 828.55 329.21 830.91 C 329.60 833.78 334.41 833.84 334.88 830.99 C 335.92 827.90 335.09 821.48 330.44 823.63 Z" />
<path fill="#fefefe" opacity="1.00" d=" M 344.34 819.31 C 345.88 819.85 350.41 817.95 349.42 820.93 C 351.59 818.61 355.05 818.41 357.71 819.96 C 356.93 821.41 356.15 822.88 355.35 824.34 C 353.65 823.58 350.77 822.71 349.89 825.06 C 349.07 828.99 349.76 833.07 349.44 837.06 C 347.73 837.01 346.03 837.00 344.33 836.97 C 344.33 831.08 344.31 825.20 344.34 819.31 Z" />
<path fill="#fefefe" opacity="1.00" d=" M 400.24 824.01 C 402.07 817.65 412.31 817.10 415.27 822.79 C 416.36 824.91 416.24 827.37 416.34 829.69 C 412.43 829.72 408.51 829.66 404.61 829.75 C 405.27 834.06 410.65 833.93 413.30 831.53 C 414.28 832.48 415.26 833.46 416.17 834.51 C 412.56 837.45 407.12 838.57 403.00 836.02 C 399.28 833.38 399.19 828.02 400.24 824.01 M 404.64 826.23 C 406.89 826.30 409.15 826.31 411.41 826.26 C 411.54 821.82 404.54 821.78 404.64 826.23 Z" />
<path fill="#fefefe" opacity="1.00" d=" M 420.10 819.32 C 421.78 819.79 425.26 818.08 425.41 820.67 C 428.40 817.61 434.63 818.59 435.70 823.00 C 436.41 827.61 435.86 832.33 436.02 837.00 C 434.30 837.00 432.58 837.00 430.86 837.02 C 430.72 833.02 431.09 829.01 430.64 825.05 C 430.02 822.62 426.12 822.68 425.48 825.06 C 424.98 829.02 425.40 833.03 425.25 837.01 C 423.52 837.00 421.81 837.00 420.09 837.01 C 420.07 831.11 420.06 825.21 420.10 819.32 Z" />
<path fill="#fefefe" opacity="1.00" d=" M 440.22 824.07 C 442.00 817.69 452.21 817.09 455.23 822.72 C 456.36 824.85 456.24 827.34 456.34 829.69 C 452.43 829.72 448.51 829.66 444.61 829.75 C 445.27 834.06 450.65 833.93 453.30 831.53 C 454.29 832.48 455.28 833.47 456.15 834.56 C 452.52 837.42 447.15 838.57 443.04 836.05 C 439.29 833.43 439.19 828.08 440.22 824.07 M 444.62 826.26 C 446.88 826.30 449.15 826.30 451.42 826.26 C 451.52 821.81 444.51 821.79 444.62 826.26 Z" />
<path fill="#fefefe" opacity="1.00" d=" M 465.09 820.87 C 467.40 818.75 470.75 818.35 473.47 819.94 C 472.69 821.41 471.90 822.88 471.09 824.34 C 469.27 823.44 466.10 822.78 465.50 825.48 C 464.97 829.29 465.39 833.17 465.25 837.01 C 463.53 837.00 461.81 837.00 460.10 837.01 C 460.06 831.12 460.07 825.23 460.09 819.34 C 461.80 819.32 463.51 819.32 465.24 819.32 L 465.09 820.87 Z" />
<path fill="#fefefe" opacity="1.00" d=" M 475.10 820.78 C 478.52 818.75 482.77 818.41 486.55 819.53 C 488.49 820.08 489.87 821.92 489.96 823.93 C 490.23 828.29 490.01 832.67 490.07 837.04 C 488.21 836.94 486.19 837.31 484.55 836.23 C 482.12 837.62 478.97 837.92 476.51 836.46 C 473.29 834.44 473.54 828.68 477.15 827.22 C 479.68 825.97 482.60 826.38 485.32 826.25 C 485.40 821.70 479.73 822.80 477.06 824.20 C 476.40 823.05 475.75 821.91 475.10 820.78 M 479.31 831.16 C 478.60 833.62 481.93 833.93 483.54 833.34 C 485.25 832.99 485.02 831.04 485.30 829.73 C 483.37 829.92 480.34 828.96 479.31 831.16 Z" />
<path fill="#fefefe" opacity="1.00" d=" M 539.45 819.64 C 543.17 818.15 548.37 818.82 550.51 822.57 C 552.05 825.75 552.03 829.62 550.90 832.94 C 548.35 839.35 536.97 838.87 535.39 831.97 C 534.36 827.67 534.67 821.56 539.45 819.64 M 540.75 824.64 C 539.74 827.48 539.39 833.67 543.97 833.06 C 547.03 832.35 546.44 828.37 546.27 826.01 C 546.39 823.12 541.94 822.12 540.75 824.64 Z" />
<path fill="#fefefe" opacity="1.00" d=" M 555.34 819.33 C 557.02 819.80 560.43 818.04 560.64 820.65 C 563.65 817.67 569.80 818.54 570.94 822.94 C 571.68 827.57 571.11 832.32 571.26 837.01 C 569.54 837.00 567.82 837.00 566.11 837.01 C 565.96 832.98 566.36 828.93 565.87 824.94 C 565.13 822.65 561.41 822.74 560.72 825.02 C 560.25 828.98 560.62 832.98 560.53 836.96 C 558.79 836.98 557.06 836.98 555.33 837.00 C 555.32 831.11 555.32 825.22 555.34 819.33 Z" />
<path fill="#fefefe" opacity="1.00" d=" M 577.36 820.48 C 581.27 817.79 586.63 818.83 590.47 821.17 C 589.64 822.23 588.81 823.29 587.98 824.35 C 585.72 823.45 582.13 821.50 580.34 824.08 C 581.20 826.69 584.92 825.41 587.00 826.35 C 591.62 827.14 592.11 834.03 588.24 836.13 C 583.87 838.53 578.35 837.42 574.42 834.65 C 575.31 833.53 576.22 832.43 577.14 831.34 C 579.58 832.71 584.13 835.08 585.97 831.84 C 585.11 829.29 581.49 830.54 579.48 829.64 C 575.25 829.02 574.07 822.93 577.36 820.48 Z" />
<path fill="#fefefe" opacity="1.00" d=" M 611.72 820.82 C 613.97 818.73 617.31 818.34 619.96 819.97 C 619.18 821.41 618.40 822.87 617.63 824.33 C 615.90 823.62 613.10 822.71 612.16 825.02 C 611.31 828.94 611.96 833.02 611.75 837.01 C 610.03 837.00 608.30 837.00 606.60 837.02 C 606.56 831.12 606.57 825.23 606.59 819.35 C 608.28 819.32 609.97 819.31 611.67 819.30 C 611.68 819.68 611.71 820.44 611.72 820.82 Z" />
<path fill="#fefefe" opacity="1.00" d=" M 621.62 820.75 C 625.05 818.76 629.27 818.39 633.04 819.53 C 635.06 820.07 636.40 822.03 636.49 824.09 C 636.71 828.38 636.52 832.70 636.57 837.00 C 634.80 836.88 632.78 837.47 631.29 836.23 C 629.03 837.26 626.43 837.91 624.03 836.96 C 620.25 835.74 619.62 829.89 622.81 827.71 C 625.45 825.89 628.80 826.39 631.82 826.24 C 631.84 821.59 626.21 823.02 623.41 824.05 C 622.80 822.94 622.21 821.84 621.62 820.75 M 625.73 831.54 C 625.60 833.88 628.76 833.84 630.32 833.24 C 631.84 832.72 631.50 830.91 631.74 829.68 C 629.78 829.95 626.34 828.90 625.73 831.54 Z" />
<path fill="#fefefe" opacity="1.00" d=" M 641.82 821.79 C 645.19 817.61 652.64 818.00 655.55 822.57 C 654.33 823.31 653.17 824.16 651.91 824.82 C 650.32 823.61 647.82 822.30 646.22 824.23 C 645.10 826.53 645.19 829.44 646.05 831.82 C 647.41 834.01 650.44 833.02 651.82 831.37 C 653.08 832.19 654.34 833.03 655.59 833.89 C 652.13 838.94 642.81 838.67 640.76 832.52 C 639.86 829.03 639.71 824.88 641.82 821.79 Z" />
<path fill="#fefefe" opacity="1.00" d=" M 671.10 819.34 C 672.79 819.32 674.49 819.31 676.20 819.30 C 676.33 825.20 676.25 831.11 676.25 837.01 C 674.52 837.00 672.80 837.00 671.09 837.01 C 671.07 831.12 671.06 825.23 671.10 819.34 Z" />
<path fill="#fefefe" opacity="1.00" d=" M 684.47 819.63 C 688.18 818.16 693.35 818.82 695.50 822.54 C 697.05 825.73 697.03 829.61 695.90 832.94 C 693.35 839.35 681.98 838.87 680.39 831.98 C 679.35 827.66 679.68 821.53 684.47 819.63 M 685.77 824.60 C 684.96 827.25 684.21 832.47 687.97 833.09 C 691.83 833.46 691.63 828.57 691.27 825.99 C 691.37 823.13 687.00 822.14 685.77 824.60 Z" />
<path fill="#fefefe" opacity="1.00" d=" M 705.71 820.70 C 708.80 817.85 714.89 818.37 716.15 822.83 C 717.00 827.47 716.29 832.25 716.55 836.95 C 714.81 836.97 713.07 836.98 711.35 837.00 C 711.23 833.00 711.59 828.98 711.14 825.02 C 710.48 822.65 706.69 822.72 705.97 825.01 C 705.49 828.98 705.88 833.00 705.75 837.00 C 704.03 837.00 702.30 837.00 700.60 837.02 C 700.56 831.12 700.57 825.23 700.59 819.34 C 702.28 819.32 703.97 819.31 705.68 819.30 L 705.71 820.70 Z" />
<path fill="#fefefe" opacity="1.00" d=" M 722.52 820.55 C 726.40 817.81 731.99 818.67 735.71 821.34 C 734.86 822.33 734.02 823.33 733.18 824.33 C 730.88 823.40 727.25 821.48 725.50 824.19 C 726.77 826.68 730.17 825.44 732.40 826.39 C 736.72 827.24 737.32 833.58 733.88 835.86 C 729.53 838.65 723.71 837.47 719.66 834.67 C 720.56 833.54 721.49 832.43 722.44 831.35 C 724.84 832.74 729.44 835.08 731.20 831.82 C 730.48 829.40 727.01 830.51 725.14 829.73 C 720.73 829.39 719.17 823.17 722.52 820.55 Z" />
</g>
<g id="#de6f00ff">
<path fill="#de6f00" opacity="1.00" d=" M 499.00 328.85 C 509.07 320.68 519.27 312.67 529.28 304.43 C 529.16 331.95 529.41 359.48 528.98 386.99 C 528.56 426.00 528.85 465.03 528.54 504.04 C 525.11 500.91 521.37 498.16 517.94 495.04 C 514.51 497.82 511.37 500.92 508.18 503.96 C 508.28 482.32 508.05 460.69 507.80 439.06 C 507.66 409.38 507.65 379.69 507.43 350.01 C 483.11 368.86 458.62 387.49 434.17 406.18 C 434.11 424.46 434.03 442.74 434.12 461.03 C 433.47 468.03 434.56 475.04 433.94 482.04 C 434.40 505.71 433.91 529.38 434.13 553.05 C 434.43 555.08 432.40 556.06 431.11 557.15 C 424.85 561.69 418.94 566.71 412.59 571.11 C 412.42 513.42 412.51 455.72 412.54 398.03 C 441.59 375.27 470.13 351.85 499.00 328.85 Z" />
<path fill="#de6f00" opacity="1.00" d=" M 647.54 387.85 C 663.97 401.63 680.36 415.46 696.77 429.27 C 707.80 438.37 718.48 447.91 729.73 456.73 C 729.69 496.48 729.41 536.23 729.29 575.97 C 729.28 578.30 729.47 580.68 728.84 582.97 C 728.74 584.28 728.85 585.59 729.16 586.89 C 729.21 588.28 729.21 589.67 729.15 591.07 C 728.22 607.51 728.95 624.08 728.66 640.57 C 722.11 634.63 715.33 628.96 708.79 623.02 C 708.74 569.99 708.37 516.95 708.25 463.92 C 688.04 447.08 667.74 430.34 647.50 413.54 C 647.52 404.98 647.44 396.41 647.54 387.85 Z" />
<path fill="#de6f00" opacity="1.00" d=" M 305.04 667.14 C 307.00 666.99 308.97 666.87 310.94 666.75 C 318.31 667.00 325.69 666.94 333.07 667.08 L 333.68 667.49 C 343.65 687.04 353.89 706.46 363.92 725.98 C 365.44 724.64 366.06 722.64 367.01 720.91 C 376.18 702.91 385.69 685.07 394.74 667.02 C 404.27 667.03 413.81 666.91 423.34 667.08 C 423.22 714.24 423.32 761.40 423.29 808.56 C 414.65 808.82 406.01 808.43 397.38 808.78 C 397.04 778.55 397.25 748.30 397.27 718.06 C 395.42 718.62 395.03 720.69 394.10 722.13 C 384.28 740.07 374.48 758.02 364.59 775.92 C 364.33 777.50 363.05 776.16 362.80 775.48 C 353.79 759.32 344.99 743.03 336.01 726.85 C 334.32 723.79 332.82 720.60 330.71 717.81 C 330.55 748.10 330.73 778.39 330.62 808.68 C 322.20 808.66 313.78 808.54 305.37 808.75 C 304.94 807.52 304.73 806.27 304.74 804.99 C 304.88 773.98 304.62 742.95 304.83 711.93 C 305.85 706.31 304.43 700.70 304.76 695.07 C 304.66 685.77 304.97 676.46 304.58 667.18 L 305.04 667.14 Z" />
<path fill="#de6f00" opacity="1.00" d=" M 462.69 667.06 C 471.39 666.93 480.09 667.03 488.79 667.00 C 488.58 714.23 488.87 761.47 488.65 808.70 C 480.01 808.55 471.37 808.71 462.73 808.61 C 462.70 761.43 462.79 714.24 462.69 667.06 Z" />
<path fill="#de6f00" opacity="1.00" d=" M 528.54 667.01 C 537.24 666.99 545.94 667.00 554.65 667.00 C 554.49 704.56 554.68 742.13 554.55 779.69 C 573.03 779.84 591.50 779.75 609.98 779.73 C 611.35 779.54 613.93 779.82 613.38 781.88 C 613.34 790.78 613.36 799.69 613.36 808.59 C 585.11 808.72 556.86 808.58 528.61 808.66 C 528.53 761.45 528.65 714.23 528.54 667.01 Z" />
<path fill="#de6f00" opacity="1.00" d=" M 643.16 667.00 C 659.09 666.98 675.02 667.03 690.95 666.97 C 704.43 667.01 717.90 667.01 731.37 666.97 L 732.25 666.97 C 732.23 676.17 732.15 685.37 732.30 694.58 C 711.12 694.95 689.93 694.57 668.75 694.77 C 668.75 703.17 668.74 711.57 668.74 719.98 C 668.66 721.23 668.93 722.41 669.56 723.52 C 687.89 723.22 706.22 723.44 724.55 723.40 C 724.55 732.53 724.52 741.66 724.56 750.79 C 706.29 750.82 688.03 750.84 669.76 750.78 C 669.50 751.28 668.98 752.28 668.72 752.78 C 668.76 761.99 668.75 771.21 668.73 780.43 C 690.09 780.85 711.48 780.52 732.86 780.59 C 732.96 789.94 732.92 799.30 732.88 808.65 C 703.02 808.69 673.17 808.53 643.31 808.73 C 643.04 761.49 643.34 714.24 643.16 667.00 Z" />
</g>
</svg>
