<svg width="152" height="62" viewBox="0 0 152 62" fill="none" xmlns="http://www.w3.org/2000/svg">
<path d="M7.65686 57.2932C7.66462 57.3182 7.66462 57.3449 7.65686 57.3698C7.62982 57.3937 7.59822 57.4119 7.56395 57.4234H7.38588H7.09943H6.82071H6.64265C6.60837 57.4119 6.57677 57.3937 6.54973 57.3698C6.54197 57.3449 6.54197 57.3182 6.54973 57.2932V52.9267L4.80776 57.2932C4.79713 57.3273 4.77534 57.357 4.74582 57.3775C4.71612 57.406 4.67827 57.4247 4.63743 57.4311H4.45163H4.18065H3.91742C3.85589 57.441 3.79314 57.441 3.73161 57.4311C3.69025 57.4195 3.65105 57.4014 3.61548 57.3775C3.5923 57.3559 3.57385 57.3298 3.56128 57.3009L1.88125 52.9344V57.3009C1.88901 57.3258 1.88901 57.3525 1.88125 57.3775C1.85694 57.4048 1.82435 57.4236 1.78835 57.4311H1.61028H1.32381H1.0451H0.867033C0.832755 57.4196 0.801168 57.4013 0.774132 57.3775C0.76637 57.3525 0.76637 57.3258 0.774132 57.3009V52.513C0.771664 52.4539 0.781367 52.3949 0.802662 52.3395C0.823956 52.2842 0.856389 52.2338 0.897997 52.1913C0.989814 52.1119 1.10911 52.0707 1.23091 52.0763H2.00512C2.12882 52.0671 2.25304 52.0671 2.37674 52.0763C2.46969 52.098 2.55855 52.1342 2.63997 52.1836C2.7127 52.2363 2.77558 52.3011 2.82578 52.3751C2.88042 52.4661 2.92211 52.564 2.94966 52.6662L4.25033 55.8607L5.58972 52.6739C5.62324 52.5726 5.66735 52.475 5.72133 52.3828C5.76618 52.3073 5.82379 52.2399 5.89166 52.1836C5.95911 52.1343 6.03524 52.098 6.11618 52.0763C6.21661 52.0672 6.31768 52.0672 6.41812 52.0763H7.23878C7.30814 52.067 7.37846 52.067 7.44782 52.0763C7.50482 52.0934 7.55757 52.1221 7.60266 52.1606C7.63993 52.2006 7.66887 52.2475 7.68782 52.2985C7.70013 52.3592 7.70013 52.4217 7.68782 52.4824L7.65686 57.2932Z" fill="white"/>
<path d="M10.1886 57.2932C10.1959 57.3182 10.1959 57.3448 10.1886 57.3698C10.1597 57.3952 10.1253 57.4136 10.0879 57.4234H9.90213H9.60793H9.31374C9.24937 57.4295 9.18455 57.4295 9.12018 57.4234C9.08502 57.4139 9.05298 57.3954 9.02727 57.3698C9.02216 57.3577 9.01953 57.3446 9.01953 57.3315C9.01953 57.3184 9.02216 57.3053 9.02727 57.2932V52.2296C9.02216 52.2174 9.01953 52.2044 9.01953 52.1913C9.01953 52.1781 9.02216 52.1651 9.02727 52.1529C9.05488 52.1258 9.08984 52.1072 9.12792 52.0993C9.1897 52.0931 9.25196 52.0931 9.31374 52.0993H9.60793H9.90213C9.96391 52.0931 10.0262 52.0931 10.0879 52.0993C10.1253 52.1092 10.1597 52.1275 10.1886 52.1529C10.1959 52.178 10.1959 52.2045 10.1886 52.2296V57.2932Z" fill="white"/>
<path d="M14.7874 56.9867C14.7919 57.0556 14.7919 57.1247 14.7874 57.1936C14.7811 57.2436 14.768 57.2925 14.7487 57.3391C14.7391 57.3696 14.7202 57.3964 14.6945 57.4157C14.6666 57.4232 14.6372 57.4232 14.6093 57.4157H11.8609C11.7684 57.4175 11.6782 57.3877 11.6054 57.3315C11.5694 57.2987 11.5417 57.2581 11.5242 57.2129C11.5068 57.1677 11.5001 57.1192 11.5047 57.071V52.1989C11.497 52.1739 11.497 52.1472 11.5047 52.1223C11.5336 52.0969 11.568 52.0785 11.6054 52.0687C11.6697 52.0619 11.7346 52.0619 11.7989 52.0687H12.0931H12.3873C12.4491 52.0625 12.5113 52.0625 12.5731 52.0687C12.6104 52.0785 12.6449 52.0969 12.6738 52.1223C12.6811 52.1473 12.6811 52.1738 12.6738 52.1989V56.5118H14.5551C14.5829 56.5039 14.6124 56.5039 14.6403 56.5118C14.666 56.5311 14.6849 56.5579 14.6945 56.5884C14.7151 56.6319 14.7282 56.6785 14.7332 56.7263C14.7585 56.8115 14.7766 56.8986 14.7874 56.9867Z" fill="white"/>
<path d="M19.061 57.0174C19.0654 57.0838 19.0654 57.1503 19.061 57.2166C19.0675 57.2598 19.0675 57.3037 19.061 57.3468C19.0494 57.3763 19.0308 57.4025 19.0068 57.4234C18.9815 57.4303 18.9548 57.4303 18.9294 57.4234H15.879C15.7841 57.4263 15.691 57.3966 15.6158 57.3392C15.5799 57.3064 15.5521 57.2658 15.5347 57.2206C15.5172 57.1754 15.5105 57.1269 15.5151 57.0787V52.3981C15.5099 52.3499 15.5163 52.3012 15.5338 52.2559C15.5513 52.2106 15.5794 52.1701 15.6158 52.1376C15.691 52.0803 15.7841 52.0505 15.879 52.0534H18.8675C18.8927 52.0457 18.9197 52.0457 18.9449 52.0534C18.9706 52.0727 18.9895 52.0995 18.9991 52.13C19.0056 52.1732 19.0056 52.217 18.9991 52.2602C19.0036 52.3291 19.0036 52.3982 18.9991 52.467C19.0035 52.5308 19.0035 52.5948 18.9991 52.6586C19.0056 52.7017 19.0056 52.7456 18.9991 52.7888C18.9895 52.8193 18.9706 52.8461 18.9449 52.8654C18.9197 52.8731 18.8927 52.8731 18.8675 52.8654H16.7307V54.1754H18.5423C18.5677 54.1685 18.5944 54.1685 18.6197 54.1754C18.6436 54.1932 18.6623 54.217 18.6739 54.2443C18.6935 54.2855 18.7065 54.3294 18.7126 54.3745C18.717 54.4383 18.717 54.5023 18.7126 54.566C18.7173 54.6323 18.7173 54.6989 18.7126 54.7652C18.7065 54.8103 18.6935 54.8543 18.6739 54.8955C18.6623 54.9228 18.6436 54.9465 18.6197 54.9644C18.5944 54.9712 18.5677 54.9712 18.5423 54.9644H16.7307V56.4965H18.8907C18.916 56.4897 18.9428 56.4897 18.9681 56.4965C18.9938 56.5158 19.0128 56.5426 19.0223 56.5731C19.0288 56.6163 19.0288 56.6602 19.0223 56.7033C19.0465 56.8064 19.0595 56.9117 19.061 57.0174Z" fill="white"/>
<path d="M25.6496 52.5284C25.6546 52.5972 25.6546 52.6664 25.6496 52.7352C25.6594 52.7807 25.6594 52.8277 25.6496 52.8731C25.6379 52.9004 25.6192 52.9242 25.5954 52.942C25.5831 52.9471 25.5699 52.9497 25.5566 52.9497C25.5434 52.9497 25.5302 52.9471 25.5179 52.942H23.5592V54.3822H25.4018C25.4244 54.3747 25.4489 54.3747 25.4715 54.3822C25.4977 54.3996 25.519 54.4234 25.5334 54.4512C25.5399 54.4944 25.5399 54.5382 25.5334 54.5814C25.5379 54.6503 25.5379 54.7194 25.5334 54.7882C25.5379 54.8571 25.5379 54.9262 25.5334 54.9951C25.5409 55.0408 25.5409 55.0873 25.5334 55.133C25.5213 55.1643 25.4997 55.1911 25.4715 55.2096C25.4489 55.2172 25.4244 55.2172 25.4018 55.2096H23.5592V57.209C23.5669 57.234 23.5669 57.2606 23.5592 57.2856C23.5311 57.3138 23.4966 57.3348 23.4585 57.3469C23.3942 57.353 23.3294 57.353 23.265 57.3469H22.9708H22.6766H22.4908C22.4527 57.3348 22.4182 57.3138 22.3901 57.2856C22.385 57.2735 22.3824 57.2604 22.3824 57.2473C22.3824 57.2341 22.385 57.2211 22.3901 57.209V52.3445C22.3858 52.2957 22.3934 52.2466 22.4123 52.2012C22.4311 52.1559 22.4607 52.1157 22.4985 52.0841C22.5714 52.0278 22.6616 51.998 22.754 51.9998H25.5721C25.5974 51.9921 25.6243 51.9921 25.6496 51.9998C25.6735 52.0207 25.6921 52.047 25.7037 52.0764C25.7125 52.1219 25.7125 52.1688 25.7037 52.2143C25.6959 52.3205 25.6778 52.4257 25.6496 52.5284Z" fill="white"/>
<path d="M31.9671 54.6963C31.9732 55.1021 31.9104 55.5061 31.7813 55.8913C31.668 56.2287 31.4772 56.5356 31.2238 56.7876C30.9699 57.0411 30.6597 57.2326 30.318 57.3468C29.9172 57.4828 29.4952 57.5476 29.0715 57.5384C28.658 57.5455 28.2456 57.4913 27.8483 57.3775C27.5237 57.2773 27.227 57.1043 26.9812 56.8719C26.7408 56.6345 26.5627 56.3426 26.4624 56.0216C26.337 55.6251 26.2768 55.2113 26.2844 54.7959C26.2782 54.3976 26.341 54.0011 26.4702 53.6238C26.5865 53.2901 26.777 52.9864 27.0276 52.7352C27.2825 52.4866 27.5889 52.2958 27.9257 52.1759C28.3319 52.0401 28.759 51.9753 29.1877 51.9844C29.5936 51.9783 29.9981 52.0326 30.3877 52.1453C30.7125 52.2409 31.0098 52.4116 31.2548 52.6433C31.4975 52.8816 31.6804 53.1728 31.789 53.4936C31.914 53.8822 31.9742 54.2885 31.9671 54.6963ZM30.6819 54.7576C30.6842 54.5006 30.6609 54.244 30.6122 53.9915C30.5711 53.7766 30.484 53.5728 30.3567 53.394C30.2346 53.2288 30.0721 53.0971 29.8845 53.0109C29.6383 52.9148 29.3747 52.8704 29.1102 52.8807C28.8431 52.8647 28.5764 52.9175 28.336 53.0339C28.1431 53.1255 27.9757 53.2623 27.8483 53.4323C27.7221 53.6098 27.6327 53.8103 27.5851 54.0221C27.5378 54.2593 27.5144 54.5005 27.5154 54.7422C27.5146 54.9992 27.5379 55.2556 27.5851 55.5083C27.6296 55.7209 27.7136 55.9235 27.8328 56.1058C27.9558 56.2732 28.1214 56.4054 28.3128 56.4889C28.5585 56.5866 28.8225 56.631 29.087 56.6191C29.3538 56.6302 29.6193 56.5776 29.8612 56.4659C30.0546 56.3716 30.222 56.2323 30.349 56.0599C30.4765 55.8802 30.566 55.677 30.6122 55.4623C30.658 55.2301 30.6814 54.9941 30.6819 54.7576Z" fill="white"/>
<path d="M37.4407 57.3009C37.4485 57.3258 37.4485 57.3525 37.4407 57.3775C37.4407 57.3775 37.4407 57.4158 37.3556 57.4311C37.2861 57.4383 37.216 57.4383 37.1465 57.4311H36.473H36.2872C36.2523 57.4171 36.2207 57.3962 36.1943 57.3698L36.1478 57.2856L35.6136 56.0905C35.5439 55.9526 35.482 55.8301 35.4201 55.7305C35.365 55.6328 35.2973 55.5427 35.2188 55.4624C35.1419 55.393 35.0526 55.3384 34.9555 55.3015C34.8428 55.2664 34.7253 55.2483 34.6071 55.2479H34.2278V57.2932C34.2355 57.3182 34.2355 57.3449 34.2278 57.3698C34.1989 57.3952 34.1644 57.4136 34.1271 57.4235H33.9413H33.6394H33.3452H33.1594C33.1234 57.416 33.0908 57.3972 33.0665 57.3698C33.0613 57.3577 33.0587 57.3447 33.0587 57.3315C33.0587 57.3184 33.0613 57.3054 33.0665 57.2932V52.4211C33.0612 52.3729 33.0676 52.3242 33.0851 52.2789C33.1026 52.2336 33.1307 52.1931 33.1671 52.1606C33.2429 52.1043 33.3356 52.0747 33.4303 52.0764H35.3659H35.6446C35.8675 52.1018 36.0861 52.1559 36.2949 52.2373C36.4784 52.2999 36.647 52.3989 36.7904 52.5284C36.9239 52.6474 37.0295 52.7938 37.1001 52.9573C37.1712 53.1352 37.2055 53.3254 37.2007 53.5166C37.2026 53.685 37.1791 53.8528 37.1311 54.0145C37.0779 54.1558 37.0021 54.2878 36.9065 54.4052C36.8007 54.527 36.6751 54.6306 36.5349 54.7116C36.3795 54.8015 36.213 54.8711 36.0394 54.9185C36.1294 54.9552 36.215 55.0014 36.2949 55.0563C36.377 55.1143 36.4523 55.1811 36.5194 55.2555C36.5919 55.3417 36.6567 55.434 36.713 55.5313C36.7801 55.6395 36.8396 55.7521 36.8911 55.8684L37.402 56.9255C37.4485 57.0328 37.4795 57.1094 37.4949 57.1553C37.4848 57.2064 37.4665 57.2555 37.4407 57.3009ZM35.8923 53.6621C35.8974 53.5027 35.8484 53.3463 35.753 53.2178C35.6428 53.0808 35.4859 52.9882 35.3117 52.9573H35.1026H34.7775H34.2278V54.4895H34.8549C35.0068 54.4909 35.1581 54.4703 35.3039 54.4282C35.423 54.4031 35.5344 54.3506 35.6291 54.275C35.7127 54.2099 35.7791 54.1258 35.8226 54.0298C35.8714 53.9136 35.8874 53.7866 35.8691 53.6621H35.8923Z" fill="white"/>
<path d="M44.6254 56.6268C44.63 56.6854 44.63 56.7443 44.6254 56.803C44.6301 56.8462 44.6301 56.8899 44.6254 56.9332C44.6267 56.9613 44.6267 56.9894 44.6254 57.0175C44.6064 57.051 44.5799 57.0798 44.5479 57.1017C44.4915 57.1539 44.4259 57.1954 44.3544 57.2243C44.2401 57.2828 44.1209 57.3315 43.9983 57.3698C43.8387 57.4197 43.6757 57.4581 43.5105 57.4848C43.3186 57.5165 43.1244 57.5319 42.9298 57.5307C42.5516 57.5331 42.1753 57.4762 41.815 57.3622C41.4977 57.2573 41.2089 57.0817 40.9711 56.8489C40.7303 56.6121 40.5476 56.3238 40.4369 56.0063C40.3065 55.6292 40.2436 55.2326 40.2511 54.8342C40.2432 54.4188 40.3141 54.0057 40.4601 53.6162C40.5812 53.2829 40.7741 52.9797 41.0253 52.7275C41.2767 52.4839 41.5775 52.2959 41.9079 52.176C42.2683 52.0499 42.6483 51.9876 43.0305 51.9921C43.1928 51.9801 43.3559 51.9801 43.5182 51.9921C43.663 52.012 43.8056 52.0453 43.9441 52.0917C44.0667 52.127 44.1859 52.1732 44.3002 52.2296C44.3773 52.2646 44.45 52.3083 44.517 52.3598C44.5499 52.386 44.5786 52.417 44.6021 52.4518C44.6065 52.4848 44.6065 52.5183 44.6021 52.5514C44.6021 52.5922 44.6021 52.6382 44.6021 52.6892C44.6021 52.7429 44.6021 52.8041 44.6021 52.8808C44.6021 52.9574 44.6021 53.034 44.6021 53.0952C44.6086 53.141 44.6086 53.1874 44.6021 53.2331C44.5903 53.2812 44.5632 53.3241 44.5247 53.3557H44.455C44.3889 53.3497 44.3265 53.3229 44.277 53.2791L43.9983 53.1182C43.8704 53.0501 43.7354 52.9962 43.5957 52.9574C43.4142 52.908 43.2264 52.8848 43.0382 52.8884C42.8192 52.8818 42.6017 52.9264 42.4034 53.0186C42.2154 53.1005 42.0505 53.2267 41.9234 53.3864C41.7849 53.5616 41.6823 53.762 41.6214 53.9762C41.5547 54.2262 41.5209 54.4837 41.5208 54.7423C41.5168 55.0192 41.5533 55.2953 41.6292 55.562C41.6925 55.7697 41.7979 55.9626 41.9389 56.1288C42.0735 56.2763 42.2403 56.3916 42.4266 56.4659C42.6328 56.5387 42.8503 56.575 43.0692 56.5732C43.2599 56.5763 43.4501 56.5531 43.6344 56.5042C43.7719 56.4653 43.9065 56.4167 44.037 56.3587L44.3157 56.2054C44.3654 56.1681 44.4241 56.1443 44.486 56.1365C44.5083 56.1276 44.5333 56.1276 44.5557 56.1365C44.5682 56.1418 44.5791 56.1502 44.5872 56.161C44.5954 56.1717 44.6005 56.1844 44.6021 56.1978C44.6074 56.2436 44.6074 56.2899 44.6021 56.3357C44.6167 56.4321 44.6245 56.5293 44.6254 56.6268Z" fill="white"/>
<path d="M50.8268 54.6963C50.833 55.1021 50.7702 55.5061 50.641 55.8913C50.5266 56.2265 50.339 56.5325 50.0913 56.7876C49.8344 57.0374 49.5252 57.2282 49.1855 57.3468C48.7845 57.4821 48.3626 57.547 47.939 57.5384C47.5254 57.5461 47.113 57.4918 46.7158 57.3775C46.3896 57.2811 46.092 57.1075 45.8487 56.8719C45.606 56.635 45.4253 56.3431 45.3222 56.0216C45.1996 55.6246 45.1421 55.2108 45.1519 54.7959C45.1457 54.3975 45.2085 54.0011 45.3377 53.6238C45.4512 53.2905 45.6391 52.9868 45.8874 52.7352C46.1439 52.4849 46.4532 52.2939 46.7932 52.1759C47.1966 52.0394 47.6212 51.9746 48.0474 51.9844C48.4534 51.9778 48.858 52.032 49.2475 52.1453C49.5746 52.2409 49.8744 52.4115 50.1223 52.6433C50.365 52.8802 50.5457 53.172 50.6488 53.4936C50.7738 53.8822 50.8339 54.2885 50.8268 54.6963ZM49.5494 54.7576C49.5532 54.5001 49.5273 54.2431 49.472 53.9915C49.4332 53.7772 49.3488 53.5735 49.2242 53.394C49.0989 53.2288 48.9339 53.0971 48.7442 53.0109C48.4985 52.9132 48.2345 52.8688 47.97 52.8807C47.7029 52.8647 47.4362 52.9175 47.1958 53.0339C47.0065 53.1278 46.8421 53.2642 46.7158 53.4323C46.5868 53.6082 46.497 53.8093 46.4526 54.0221C46.3988 54.2584 46.3729 54.5001 46.3751 54.7422C46.373 54.9996 46.399 55.2564 46.4526 55.5083C46.4935 55.722 46.5777 55.9253 46.7003 56.1058C46.8186 56.2745 46.9822 56.4072 47.1726 56.4889C47.4185 56.5857 47.6823 56.6301 47.9468 56.6191C48.2135 56.6302 48.4791 56.5776 48.721 56.4659C48.9144 56.3716 49.0818 56.2323 49.2087 56.0599C49.3362 55.8802 49.4257 55.677 49.472 55.4623C49.524 55.231 49.55 54.9946 49.5494 54.7576Z" fill="white"/>
<path d="M56.796 57.0634C56.8111 57.1186 56.8111 57.1768 56.796 57.232C56.7738 57.2808 56.7391 57.3231 56.6953 57.3545C56.6545 57.3932 56.6035 57.4197 56.5482 57.4311C56.4917 57.4386 56.4344 57.4386 56.3779 57.4311H55.8592C55.7665 57.4404 55.6731 57.4404 55.5805 57.4311C55.4989 57.4112 55.4224 57.3747 55.3559 57.3239C55.2865 57.2619 55.2242 57.1926 55.1701 57.117C55.094 57.0087 55.0242 56.8962 54.9611 56.78L53.4669 54.275C53.3817 54.1218 53.2888 53.9609 53.2036 53.7924C53.1185 53.6238 53.0333 53.4476 52.9636 53.2868C52.9636 53.4859 52.9636 53.6851 52.9636 53.8766C52.9636 54.0681 52.9636 54.2826 52.9636 54.4895V57.3009C52.9703 57.3234 52.9703 57.3473 52.9636 57.3698C52.9418 57.398 52.9122 57.4193 52.8785 57.4311H52.7081H52.4294H52.1662C52.1096 57.4373 52.0525 57.4373 51.9959 57.4311C51.9621 57.4193 51.9325 57.398 51.9107 57.3698C51.904 57.3473 51.904 57.3234 51.9107 57.3009V52.4747C51.908 52.4194 51.9185 52.3642 51.9413 52.3136C51.9642 52.263 51.9988 52.2185 52.0423 52.1836C52.1318 52.1179 52.2406 52.0829 52.352 52.084H53.0101C53.1079 52.0744 53.2065 52.0744 53.3043 52.084C53.3825 52.0986 53.4565 52.13 53.5211 52.176C53.5914 52.2196 53.6519 52.277 53.6991 52.3445C53.7533 52.4211 53.8075 52.5054 53.8695 52.6126L55.0385 54.5737L55.2398 54.9261L55.4334 55.2708C55.4953 55.3858 55.5495 55.5007 55.6114 55.6079L55.7818 55.9373C55.7818 55.7458 55.7818 55.5466 55.7818 55.3321C55.7818 55.1176 55.7818 54.9261 55.7818 54.7346V52.2143C55.7727 52.1922 55.7727 52.1675 55.7818 52.1453C55.8053 52.1156 55.8379 52.0941 55.8747 52.084C55.931 52.074 55.9887 52.074 56.045 52.084H56.316H56.5792C56.6354 52.0731 56.6933 52.0731 56.7495 52.084C56.7811 52.096 56.8082 52.1174 56.8269 52.1453C56.8336 52.1679 56.8336 52.1918 56.8269 52.2143L56.796 57.0634Z" fill="white"/>
<path d="M61.658 55.8377C61.672 56.1045 61.6103 56.3698 61.48 56.6037C61.3672 56.8167 61.2055 57.0004 61.0077 57.14C60.795 57.2895 60.5561 57.3986 60.3032 57.4617C60.0199 57.5337 59.7285 57.5697 59.4361 57.569C59.2441 57.5698 59.0524 57.5545 58.8631 57.523C58.704 57.4951 58.5464 57.4593 58.3909 57.4158C58.2747 57.3765 58.1609 57.3305 58.0502 57.2779C57.9799 57.2468 57.9147 57.2055 57.8567 57.1553C57.8122 57.1147 57.7823 57.061 57.7715 57.0021C57.7567 56.9031 57.7567 56.8024 57.7715 56.7033C57.7715 56.6191 57.7715 56.5501 57.7715 56.4888C57.7715 56.4275 57.7715 56.3893 57.7715 56.3509C57.7836 56.3197 57.8052 56.2929 57.8334 56.2743C57.8587 56.2667 57.8856 56.2667 57.9109 56.2743C57.9777 56.2813 58.0417 56.305 58.0967 56.3433L58.3986 56.4965C58.542 56.5554 58.6895 56.604 58.8399 56.6421C59.0348 56.6905 59.2352 56.7136 59.4361 56.711C59.5691 56.7125 59.7018 56.6971 59.8309 56.665C59.9399 56.6395 60.0425 56.5927 60.1328 56.5271C60.216 56.4767 60.281 56.4017 60.3187 56.3126C60.3661 56.2257 60.3901 56.128 60.3883 56.0292C60.3916 55.9137 60.3501 55.8013 60.2722 55.7151C60.1905 55.6231 60.0936 55.5454 59.9857 55.4853C59.8561 55.4124 59.7216 55.3484 59.5831 55.2938L59.1109 55.1023C58.9503 55.0407 58.7949 54.9664 58.6464 54.8801C58.4954 54.798 58.3572 54.6948 58.236 54.5737C58.1148 54.4551 58.0176 54.3147 57.9496 54.16C57.868 53.9795 57.8283 53.7832 57.8334 53.5855C57.8285 53.3482 57.8844 53.1137 57.996 52.9037C58.1018 52.7124 58.25 52.5474 58.4296 52.4211C58.6222 52.2878 58.8372 52.1893 59.0644 52.13C59.3178 52.0685 59.5778 52.0376 59.8386 52.038C59.9803 52.0263 60.1228 52.0263 60.2645 52.038C60.4003 52.054 60.5349 52.0796 60.667 52.1146C60.7793 52.1411 60.8884 52.1797 60.9922 52.2295C61.0609 52.2541 61.126 52.2876 61.1858 52.3291L61.2477 52.3981C61.249 52.4236 61.249 52.4492 61.2477 52.4747C61.2477 52.513 61.2477 52.5513 61.2477 52.5973V52.7811C61.2521 52.8474 61.2521 52.914 61.2477 52.9803C61.2565 53.0258 61.2565 53.0726 61.2477 53.1182C61.246 53.1335 61.2409 53.1483 61.2329 53.1615C61.2249 53.1747 61.2141 53.1861 61.2012 53.1948C61.1762 53.2036 61.1489 53.2036 61.1238 53.1948C61.0663 53.1892 61.0107 53.1708 60.9612 53.1412L60.6903 53.0109C60.5666 52.962 60.4399 52.9211 60.3109 52.8884C60.1592 52.8499 60.003 52.8319 59.8464 52.8347C59.7286 52.8324 59.6111 52.8479 59.498 52.8807C59.4083 52.9018 59.324 52.9409 59.2502 52.9956C59.1862 53.0435 59.1356 53.1068 59.1031 53.1795C59.067 53.2508 59.0484 53.3295 59.0489 53.4093C59.0469 53.521 59.0854 53.6297 59.1573 53.7157C59.2396 53.8124 59.3393 53.8929 59.4515 53.9532C59.5865 54.026 59.7262 54.0899 59.8696 54.1447L60.3419 54.3285C60.4967 54.3975 60.6593 54.4741 60.8141 54.5584C60.9632 54.6403 61.1011 54.7407 61.2245 54.8571C61.345 54.9779 61.4444 55.1177 61.5187 55.2708C61.6046 55.4481 61.652 55.6412 61.658 55.8377Z" fill="white"/>
<path d="M66.4891 52.5284C66.4935 52.5972 66.4935 52.6663 66.4891 52.7352C66.4952 52.7784 66.4952 52.8222 66.4891 52.8654C66.477 52.8967 66.4554 52.9235 66.4272 52.942C66.4048 52.951 66.3798 52.951 66.3575 52.942H64.8091V57.2626C64.8164 57.2876 64.8164 57.3142 64.8091 57.3392C64.7802 57.3646 64.7457 57.3829 64.7084 57.3928H64.5226H64.2284H63.9342C63.8699 57.3996 63.805 57.3996 63.7407 57.3928C63.7033 57.3829 63.6689 57.3646 63.64 57.3392C63.6323 57.3142 63.6323 57.2876 63.64 57.2626V52.9727H62.138C62.1107 52.9833 62.0802 52.9833 62.0529 52.9727C62.0295 52.9512 62.0111 52.9251 61.9987 52.8961C61.9925 52.8529 61.9925 52.809 61.9987 52.7658C61.9943 52.697 61.9943 52.6279 61.9987 52.559C61.994 52.4876 61.994 52.4159 61.9987 52.3445C61.9934 52.2987 61.9934 52.2524 61.9987 52.2066C62.013 52.1786 62.0312 52.1528 62.0529 52.13C62.0807 52.1221 62.1102 52.1221 62.138 52.13H66.3652C66.388 52.1234 66.4122 52.1234 66.4349 52.13C66.4615 52.1502 66.4827 52.1765 66.4968 52.2066C66.5021 52.2524 66.5021 52.2987 66.4968 52.3445C66.4977 52.4059 66.4951 52.4673 66.4891 52.5284Z" fill="white"/>
<path d="M71.6221 57.3009C71.6265 57.3262 71.6265 57.3521 71.6221 57.3775C71.5978 57.4048 71.5653 57.4237 71.5292 57.4311C71.4624 57.4385 71.3948 57.4385 71.3279 57.4311H70.6544H70.4686C70.4318 57.4211 70.3992 57.3996 70.3757 57.3698C70.3529 57.3463 70.3369 57.3172 70.3292 57.2856L69.7873 56.0905C69.7333 55.9667 69.6712 55.8464 69.6015 55.7305C69.5465 55.6308 69.4759 55.5403 69.3924 55.4624C69.3156 55.393 69.2263 55.3384 69.1292 55.3015C69.0193 55.2657 68.9043 55.2476 68.7885 55.2479H68.4092V57.2932C68.4143 57.3054 68.4169 57.3184 68.4169 57.3315C68.4169 57.3447 68.4143 57.3577 68.4092 57.3698C68.3803 57.3952 68.3458 57.4136 68.3085 57.4235H68.1227H67.8285H67.5343H67.3485C67.3112 57.4136 67.2767 57.3952 67.2479 57.3698C67.2405 57.3448 67.2405 57.3183 67.2479 57.2932V52.4211C67.2436 52.3723 67.2512 52.3231 67.27 52.2778C67.2889 52.2325 67.3184 52.1923 67.3562 52.1606C67.4291 52.1044 67.5193 52.0746 67.6117 52.0764H69.555H69.8337C70.0565 52.1027 70.275 52.1567 70.4841 52.2373C70.6667 52.3017 70.8349 52.4006 70.9796 52.5284C71.1108 52.6477 71.2139 52.7942 71.2815 52.9574C71.3553 53.1346 71.3922 53.3248 71.3899 53.5166C71.3931 53.6857 71.3669 53.8541 71.3125 54.0145C71.2655 54.1586 71.1891 54.2916 71.0879 54.4052C70.985 54.5269 70.8619 54.6305 70.7241 54.7116C70.568 54.8002 70.4016 54.8697 70.2286 54.9185C70.3153 54.9568 70.3982 55.003 70.4763 55.0563C70.56 55.1122 70.6356 55.1792 70.7008 55.2555C70.7759 55.3415 70.8432 55.4338 70.9021 55.5313C70.9641 55.6309 71.0183 55.7458 71.0802 55.8684L71.5834 56.9255L71.6763 57.1553C71.6662 57.2064 71.6479 57.2555 71.6221 57.3009ZM70.0737 53.6621C70.0772 53.5041 70.0313 53.3489 69.9421 53.2178C69.8293 53.0838 69.6736 52.9919 69.5008 52.9574H69.2918H68.9666H68.4169V54.4895H69.0363C69.1907 54.4911 69.3446 54.4705 69.4931 54.4282C69.6121 54.4031 69.7235 54.3506 69.8182 54.275C69.899 54.2072 69.9649 54.1238 70.0118 54.0298C70.0607 53.9136 70.0819 53.7878 70.0737 53.6621Z" fill="white"/>
<path d="M77.4364 55.447C77.4411 55.7484 77.3859 56.0477 77.2738 56.328C77.1694 56.5824 77.0048 56.8084 76.7938 56.9868C76.5648 57.1722 76.302 57.3126 76.0196 57.4005C75.6721 57.4974 75.3122 57.5439 74.9512 57.5384C74.6087 57.5416 74.2674 57.4978 73.937 57.4081C73.6526 57.3409 73.3877 57.2099 73.1628 57.0251C72.9526 56.8553 72.7877 56.6369 72.6828 56.3893C72.5697 56.1039 72.5145 55.7994 72.5202 55.493V52.2296C72.5151 52.2174 72.5125 52.2044 72.5125 52.1913C72.5125 52.1781 72.5151 52.1651 72.5202 52.153C72.5465 52.1241 72.582 52.1052 72.6208 52.0993C72.6826 52.0931 72.7449 52.0931 72.8066 52.0993H73.1009H73.3951C73.4568 52.0931 73.5191 52.0931 73.5809 52.0993C73.6182 52.1092 73.6526 52.1276 73.6815 52.153C73.6893 52.1779 73.6893 52.2046 73.6815 52.2296V55.3934C73.6769 55.5814 73.7085 55.7686 73.7744 55.945C73.8221 56.0939 73.9074 56.2284 74.0222 56.3357C74.1385 56.4355 74.2723 56.5133 74.417 56.5655C74.5818 56.6191 74.7545 56.645 74.928 56.6421C75.104 56.6459 75.2795 56.62 75.4467 56.5655C75.5907 56.5168 75.7227 56.4385 75.8338 56.3357C75.94 56.2289 76.0218 56.1009 76.0738 55.9603C76.1322 55.798 76.161 55.6269 76.159 55.4547V52.2296C76.1539 52.2174 76.1512 52.2044 76.1512 52.1913C76.1512 52.1781 76.1539 52.1651 76.159 52.153C76.1833 52.1256 76.2159 52.1068 76.2519 52.0993C76.3162 52.0925 76.3811 52.0925 76.4454 52.0993H76.7396H77.0261C77.0879 52.0931 77.1501 52.0931 77.2119 52.0993C77.2479 52.1068 77.2805 52.1256 77.3048 52.153C77.3099 52.1651 77.3126 52.1781 77.3126 52.1913C77.3126 52.2044 77.3099 52.2174 77.3048 52.2296L77.4364 55.447Z" fill="white"/>
<path d="M82.8868 56.6268C82.8915 56.6854 82.8915 56.7443 82.8868 56.803C82.8868 56.8566 82.8868 56.8949 82.8868 56.9332C82.8911 56.9611 82.8911 56.9895 82.8868 57.0175C82.8684 57.0491 82.8449 57.0776 82.8172 57.1017C82.7575 57.1535 82.6895 57.1949 82.6159 57.2243C82.5022 57.2841 82.3829 57.3329 82.2597 57.3698C82.1028 57.4197 81.9424 57.4582 81.7797 57.4848C81.5853 57.5165 81.3884 57.5319 81.1913 57.5307C80.8155 57.5337 80.4417 57.4768 80.0842 57.3622C79.7669 57.2573 79.4782 57.0817 79.2403 56.8489C78.9995 56.6121 78.8168 56.3238 78.7061 56.0062C78.5757 55.6292 78.5129 55.2326 78.5203 54.8342C78.514 54.4196 78.5821 54.0072 78.7216 53.6162C78.8454 53.2825 79.0409 52.9793 79.2945 52.7275C79.5417 52.4824 79.8404 52.2941 80.1694 52.176C80.5324 52.0499 80.915 51.9877 81.2997 51.9921C81.4595 51.9801 81.62 51.9801 81.7797 51.9921C81.9271 52.0118 82.0722 52.0451 82.2133 52.0917C82.3359 52.127 82.4551 52.1731 82.5694 52.2296C82.6465 52.2646 82.7193 52.3083 82.7862 52.3598L82.8714 52.4518C82.8889 52.483 82.9019 52.5165 82.9101 52.5513V52.6892V52.8807C82.9144 52.9522 82.9144 53.0238 82.9101 53.0952C82.9162 53.141 82.9162 53.1874 82.9101 53.2331C82.8985 53.2648 82.88 53.2936 82.8559 53.3174C82.8307 53.3251 82.8037 53.3251 82.7785 53.3174C82.7127 53.3099 82.6507 53.2833 82.6004 53.2408L82.3294 53.0799C82.201 53.0132 82.0661 52.9592 81.9268 52.919C81.7453 52.8697 81.5576 52.8465 81.3694 52.8501C81.148 52.8443 80.9281 52.8889 80.7268 52.9803C80.5424 53.0645 80.3806 53.1905 80.2545 53.348C80.116 53.5233 80.0135 53.7237 79.9526 53.9379C79.8822 54.1872 79.8483 54.4452 79.8519 54.704C79.848 54.9809 79.8845 55.257 79.9603 55.5236C80.0204 55.7327 80.1261 55.9263 80.27 56.0905C80.4017 56.2414 80.5693 56.3572 80.7578 56.4276C80.964 56.5004 81.1815 56.5367 81.4004 56.5348C81.5886 56.5385 81.7763 56.5153 81.9578 56.4659C82.0983 56.4282 82.2355 56.3795 82.3681 56.3203L82.6468 56.1671C82.6938 56.1301 82.7499 56.1062 82.8094 56.0982C82.8345 56.0894 82.8618 56.0894 82.8868 56.0982C82.9079 56.1139 82.924 56.1351 82.9333 56.1595C82.9385 56.2053 82.9385 56.2515 82.9333 56.2974C82.8791 56.4199 82.8868 56.5272 82.8868 56.6268Z" fill="white"/>
<path d="M87.7954 52.5284C87.7995 52.5972 87.7995 52.6663 87.7954 52.7352C87.7893 52.7803 87.7762 52.8242 87.7567 52.8654C87.7471 52.8959 87.7282 52.9227 87.7025 52.942C87.6902 52.9471 87.677 52.9497 87.6638 52.9497C87.6505 52.9497 87.6373 52.9471 87.625 52.942H86.1231V57.2626C86.1282 57.2747 86.1308 57.2877 86.1308 57.3009C86.1308 57.314 86.1282 57.3271 86.1231 57.3392C86.0955 57.3663 86.0605 57.3849 86.0224 57.3928H85.8366H85.5424H85.2482H85.0624C85.0243 57.3849 84.9894 57.3663 84.9618 57.3392C84.9566 57.3271 84.954 57.314 84.954 57.3009C84.954 57.2877 84.9566 57.2747 84.9618 57.2626V52.9727H83.3901C83.3778 52.9777 83.3647 52.9803 83.3514 52.9803C83.3381 52.9803 83.325 52.9777 83.3127 52.9727C83.287 52.9533 83.268 52.9266 83.2585 52.8961C83.2389 52.8549 83.2259 52.811 83.2198 52.7658C83.2156 52.697 83.2156 52.6279 83.2198 52.559C83.2155 52.4876 83.2155 52.4159 83.2198 52.3445C83.2271 52.2972 83.2401 52.2509 83.2585 52.2066C83.2702 52.1772 83.2887 52.1509 83.3127 52.13C83.3379 52.1223 83.3649 52.1223 83.3901 52.13H87.6173C87.6425 52.1223 87.6695 52.1223 87.6947 52.13C87.7187 52.1509 87.7373 52.1772 87.7489 52.2066C87.7674 52.2509 87.7804 52.2972 87.7876 52.3445C87.7934 52.4056 87.796 52.467 87.7954 52.5284Z" fill="white"/>
<path d="M89.731 57.2932C89.7361 57.3053 89.7387 57.3184 89.7387 57.3315C89.7387 57.3446 89.7361 57.3577 89.731 57.3698C89.7021 57.3952 89.6676 57.4136 89.6303 57.4234H89.4445H89.1503H88.8561H88.6703C88.6322 57.4155 88.5972 57.3969 88.5696 57.3698C88.5645 57.3577 88.5619 57.3446 88.5619 57.3315C88.5619 57.3184 88.5645 57.3053 88.5696 57.2932V52.2296C88.5645 52.2174 88.5619 52.2044 88.5619 52.1913C88.5619 52.1781 88.5645 52.1651 88.5696 52.1529C88.5972 52.1258 88.6322 52.1072 88.6703 52.0993C88.7321 52.0931 88.7943 52.0931 88.8561 52.0993H89.1503H89.4445C89.5063 52.0931 89.5685 52.0931 89.6303 52.0993C89.6676 52.1092 89.7021 52.1275 89.731 52.1529C89.7361 52.1651 89.7387 52.1781 89.7387 52.1913C89.7387 52.2044 89.7361 52.2174 89.731 52.2296V57.2932Z" fill="white"/>
<path d="M96.4356 54.6963C96.4417 55.1021 96.3789 55.5061 96.2498 55.8913C96.1365 56.2287 95.9457 56.5355 95.6924 56.7876C95.4384 57.0411 95.1283 57.2326 94.7865 57.3468C94.3857 57.4828 93.9637 57.5476 93.5401 57.5383C93.1265 57.5455 92.7141 57.4912 92.3168 57.3775C91.9914 57.2791 91.6943 57.1059 91.4497 56.8719C91.2093 56.6345 91.0312 56.3426 90.931 56.0216C90.8055 55.6251 90.7453 55.2112 90.7529 54.7959C90.7467 54.3975 90.8095 54.0011 90.9387 53.6238C91.055 53.2918 91.2425 52.9887 91.4884 52.7352C91.7474 52.4881 92.056 52.2976 92.3942 52.1759C92.7979 52.0407 93.2223 51.9759 93.6484 51.9844C94.0569 51.9778 94.4641 52.0321 94.8562 52.1453C95.1811 52.2409 95.4783 52.4116 95.7233 52.6432C95.966 52.8816 96.149 53.1728 96.2575 53.4936C96.3825 53.8822 96.4427 54.2885 96.4356 54.6963ZM95.1504 54.7575C95.1528 54.5005 95.1294 54.2439 95.0807 53.9915C95.0397 53.7766 94.9525 53.5728 94.8252 53.394C94.7031 53.2288 94.5406 53.0971 94.353 53.0109C94.1068 52.9148 93.8432 52.8704 93.5788 52.8807C93.3116 52.8647 93.0449 52.9175 92.8046 53.0339C92.6117 53.1255 92.4442 53.2622 92.3168 53.4323C92.1906 53.6098 92.1012 53.8103 92.0536 54.0221C92.0036 54.259 91.9777 54.5003 91.9761 54.7422C91.9777 54.9994 92.0036 55.2559 92.0536 55.5083C92.0945 55.722 92.1788 55.9253 92.3013 56.1058C92.4243 56.2732 92.59 56.4053 92.7813 56.4888C93.027 56.5866 93.291 56.631 93.5555 56.6191C93.8223 56.6302 94.0878 56.5776 94.3297 56.4659C94.5232 56.3716 94.6905 56.2323 94.8175 56.0599C94.945 55.8802 95.0345 55.677 95.0807 55.4623C95.1265 55.2301 95.1499 54.9941 95.1504 54.7575Z" fill="white"/>
<path d="M102.405 57.0634C102.404 57.1216 102.391 57.1791 102.366 57.2319C102.341 57.2791 102.307 57.3208 102.265 57.3545C102.224 57.3916 102.173 57.418 102.118 57.4311C102.059 57.4385 101.999 57.4385 101.94 57.4311H101.422C101.329 57.4404 101.236 57.4404 101.143 57.4311C101.064 57.4094 100.991 57.373 100.926 57.3238C100.852 57.2642 100.787 57.1946 100.733 57.117C100.656 57.0087 100.587 56.8962 100.523 56.7799L99.0293 54.2749L98.766 53.7923C98.6809 53.6161 98.5957 53.4476 98.526 53.2867C98.526 53.4859 98.526 53.6851 98.526 53.8766C98.526 54.0681 98.526 54.2826 98.526 54.4894V57.3008C98.5351 57.323 98.5351 57.3477 98.526 57.3698C98.5042 57.3979 98.4746 57.4192 98.4409 57.4311C98.3842 57.4373 98.3271 57.4373 98.2705 57.4311H97.9996H97.7286C97.6746 57.4376 97.62 57.4376 97.566 57.4311C97.5312 57.4211 97.5011 57.3994 97.4808 57.3698C97.4742 57.3473 97.4742 57.3234 97.4808 57.3008V52.4747C97.4765 52.4199 97.4855 52.3649 97.5071 52.3143C97.5286 52.2636 97.5621 52.2188 97.6047 52.1836C97.6971 52.1178 97.8083 52.0829 97.9221 52.084H98.5725C98.6703 52.0744 98.7688 52.0744 98.8667 52.084C98.9453 52.0972 99.0196 52.1287 99.0834 52.1759C99.1537 52.2196 99.2143 52.2769 99.2615 52.3445C99.3279 52.4291 99.3874 52.5187 99.4396 52.6126L100.601 54.5737L100.802 54.9261C100.872 55.041 100.934 55.1559 100.996 55.2708L101.182 55.6079C101.236 55.7228 101.298 55.83 101.352 55.9373C101.352 55.7458 101.352 55.5466 101.352 55.3321C101.352 55.1176 101.352 54.9261 101.352 54.7345V52.2142C101.345 52.1917 101.345 52.1678 101.352 52.1453C101.378 52.1189 101.41 52.098 101.445 52.084C101.501 52.0747 101.559 52.0747 101.615 52.084H101.894H102.157C102.211 52.0738 102.266 52.0738 102.32 52.084C102.353 52.0959 102.383 52.1172 102.405 52.1453C102.411 52.1678 102.411 52.1917 102.405 52.2142V57.0634Z" fill="white"/>
<path d="M70.0737 19.5802C70.0786 18.7817 70.2065 17.9886 70.4531 17.2284C70.6683 16.5168 70.9781 15.8367 71.3744 15.206C71.4363 15.0987 71.5447 15.0834 71.7073 15.16L73.488 15.8571C73.5654 15.8571 73.6041 15.9261 73.6119 15.972C73.626 16.0273 73.626 16.0853 73.6119 16.1406C73.3482 16.5964 73.1229 17.073 72.9383 17.5654C72.7183 18.1402 72.6106 18.7511 72.6209 19.3657C72.6029 19.8547 72.6954 20.3414 72.8918 20.7905C73.0564 21.1462 73.2967 21.4624 73.5964 21.7175C73.8788 21.9446 74.2057 22.1115 74.5564 22.2077C74.8922 22.2976 75.2383 22.3439 75.5861 22.3456C76.3298 22.3828 77.061 22.1453 77.6378 21.6791C77.9167 21.3989 78.1305 21.0617 78.2642 20.6913C78.3979 20.3208 78.4484 19.9259 78.412 19.5342V5.46936C78.4082 5.43929 78.4114 5.40877 78.4214 5.38012C78.4313 5.35147 78.4477 5.32545 78.4694 5.30403C78.491 5.28261 78.5173 5.26637 78.5463 5.25652C78.5753 5.24668 78.6061 5.24349 78.6365 5.24722H80.6649C80.6943 5.24346 80.7241 5.24642 80.7522 5.25587C80.7802 5.26532 80.8057 5.28099 80.8266 5.30171C80.8475 5.32243 80.8634 5.34764 80.8729 5.37538C80.8825 5.40311 80.8855 5.43265 80.8817 5.46171V16.5312C80.8712 16.7264 80.9112 16.921 80.9979 17.0966C81.0846 17.2722 81.2152 17.423 81.3772 17.5348C81.7757 17.7802 82.2399 17.9004 82.7088 17.8795H83.0572C83.1795 17.871 83.3021 17.8885 83.4169 17.9308C83.5318 17.9731 83.6361 18.0392 83.723 18.1247C83.8916 18.3608 83.9685 18.649 83.9398 18.9367C83.9717 19.2452 83.8981 19.5554 83.7308 19.8176C83.6436 19.905 83.5381 19.9722 83.4216 20.0146C83.3052 20.0569 83.1808 20.0734 83.0572 20.0628C82.6411 20.0654 82.2258 20.0243 81.8185 19.9402C81.4499 19.8536 81.1206 19.6489 80.8817 19.358V19.5955C80.8953 20.3411 80.7639 21.0823 80.4946 21.7787C80.2545 22.3676 79.8779 22.8924 79.3952 23.3109C78.9025 23.739 78.3212 24.0553 77.6919 24.2378C76.9819 24.451 76.2429 24.5544 75.5009 24.5442C74.7743 24.5534 74.0507 24.4499 73.3564 24.2378C72.7305 24.0511 72.1506 23.7381 71.6531 23.3185C71.1645 22.8986 70.7781 22.3748 70.5228 21.7864C70.2216 21.0893 70.0688 20.3383 70.0737 19.5802Z" fill="white"/>
<path d="M87.7877 18.9367C87.6997 19.1372 87.5722 19.3183 87.4127 19.4696C87.2532 19.6208 87.0648 19.7392 86.8586 19.8177C86.321 19.9999 85.7542 20.083 85.1863 20.0628H83.1424C83.0226 20.0726 82.902 20.0586 82.7877 20.0218C82.6734 19.9849 82.5676 19.926 82.4766 19.8483C82.3007 19.6127 82.2231 19.3192 82.2598 19.0286C82.224 18.7111 82.2947 18.3908 82.4611 18.117C82.5466 18.027 82.6516 17.9574 82.7684 17.9136C82.8851 17.8698 83.0104 17.8529 83.1347 17.8642H84.5592C84.7694 17.8746 84.9791 17.8351 85.1708 17.7493C85.3109 17.6644 85.4175 17.5347 85.4728 17.3816C85.5493 17.1699 85.5912 16.9475 85.5967 16.7228C85.5967 16.4623 85.5967 16.1329 85.5967 15.7422V11.2225C85.5943 11.1847 85.6043 11.1471 85.6252 11.1154C85.6462 11.0836 85.6769 11.0594 85.7128 11.0463C85.7957 11.0218 85.8817 11.0089 85.9683 11.008H87.8806C87.9103 11.0025 87.9408 11.0042 87.9697 11.0131C87.9985 11.0219 88.0248 11.0376 88.0461 11.0587C88.0674 11.0798 88.0833 11.1058 88.0922 11.1343C88.1011 11.1629 88.1029 11.1931 88.0974 11.2225V16.5236C88.0889 16.7174 88.1299 16.9102 88.2165 17.0842C88.3031 17.2582 88.4325 17.4079 88.5929 17.5195C88.9913 17.7649 89.4556 17.8851 89.9245 17.8642H90.3039C90.428 17.8546 90.5528 17.8722 90.6693 17.9159C90.7857 17.9596 90.891 18.0283 90.9774 18.117C91.1459 18.3531 91.2229 18.6414 91.1942 18.929C91.226 19.2375 91.1524 19.5477 90.9852 19.81C90.8992 19.8967 90.7949 19.9636 90.6799 20.006C90.5648 20.0484 90.4417 20.0651 90.3193 20.0551C89.8102 20.0656 89.3028 19.9931 88.8174 19.8406C88.5931 19.7663 88.3863 19.6479 88.2094 19.4926C88.0324 19.3372 87.889 19.1482 87.7877 18.9367ZM84.3734 24.2455C84.343 24.2492 84.3122 24.246 84.2832 24.2362C84.2543 24.2263 84.228 24.2101 84.2063 24.1886C84.1847 24.1672 84.1682 24.1412 84.1583 24.1125C84.1483 24.0839 84.1451 24.0534 84.1489 24.0233V22.1311C84.1451 22.1011 84.1483 22.0706 84.1583 22.0419C84.1682 22.0133 84.1847 21.9872 84.2063 21.9658C84.228 21.9444 84.2543 21.9282 84.2832 21.9183C84.3122 21.9085 84.343 21.9053 84.3734 21.909H86.2238C86.3709 21.909 86.4405 21.9856 86.4405 22.1311V24.0233C86.4405 24.1689 86.3709 24.2455 86.2238 24.2455H84.3734ZM87.2302 24.2455C87.0831 24.2455 87.0135 24.1689 87.0135 24.0233V22.1311C87.0135 21.9856 87.0831 21.909 87.2302 21.909H89.0806C89.111 21.9053 89.1418 21.9085 89.1708 21.9183C89.1997 21.9282 89.226 21.9444 89.2477 21.9658C89.2693 21.9872 89.2858 22.0133 89.2957 22.0419C89.3057 22.0706 89.3089 22.1011 89.3051 22.1311V24.0233C89.3089 24.0534 89.3057 24.0839 89.2957 24.1125C89.2858 24.1412 89.2693 24.1672 89.2477 24.1886C89.226 24.2101 89.1997 24.2263 89.1708 24.2362C89.1418 24.246 89.111 24.2492 89.0806 24.2455H87.2302Z" fill="white"/>
<path d="M97.0628 20.216C96.39 20.2248 95.7204 20.1239 95.0808 19.9172C94.5088 19.7258 93.9984 19.3874 93.602 18.9367C93.4657 19.1625 93.2839 19.358 93.0678 19.5112C92.8718 19.6546 92.6552 19.7682 92.4252 19.8483C92.2061 19.9322 91.9772 19.9888 91.7439 20.0168C91.5258 20.0463 91.306 20.0617 91.0859 20.0628H90.3117C90.1899 20.0712 90.0678 20.0529 89.954 20.0092C89.8403 19.9655 89.7377 19.8975 89.6536 19.81C89.4814 19.5608 89.4021 19.2603 89.4291 18.9597C89.395 18.6583 89.469 18.3546 89.6381 18.1017C89.7278 18.0215 89.8332 17.9604 89.9477 17.9222C90.0622 17.884 90.1835 17.8695 90.3039 17.8795H91.1633C91.3302 17.8787 91.4955 17.8475 91.651 17.7876C91.8222 17.7135 91.9733 17.6007 92.0923 17.4582C92.2389 17.2789 92.3493 17.0735 92.4175 16.853C92.5154 16.546 92.5599 16.2248 92.5491 15.9031C92.5418 15.796 92.5418 15.6885 92.5491 15.5813V15.2519C92.5393 14.5236 92.6625 13.7996 92.913 13.1146C93.1115 12.5712 93.4348 12.0808 93.8575 11.6821C94.2661 11.3126 94.7527 11.0378 95.2821 10.8777C95.8617 10.7037 96.4648 10.6185 97.0705 10.6249C97.6847 10.6214 98.2958 10.7119 98.8822 10.8931C99.422 11.0513 99.9157 11.335 100.322 11.7204C100.761 12.1468 101.088 12.6727 101.274 13.2525C101.521 13.9934 101.636 14.7709 101.615 15.5507C101.634 16.2896 101.522 17.0261 101.282 17.7263C101.094 18.2759 100.778 18.7743 100.361 19.1818C99.9585 19.5686 99.4669 19.8526 98.9286 20.0092C98.3211 20.1727 97.6918 20.2425 97.0628 20.216ZM97.0628 12.8082C96.7686 12.7861 96.4734 12.836 96.2033 12.9536C95.9333 13.0712 95.6966 13.2528 95.5143 13.4824C95.1426 14.0618 94.9663 14.7432 95.0111 15.4281C94.9505 16.1313 95.1275 16.8346 95.5143 17.4275C95.7082 17.6392 95.9487 17.8039 96.2172 17.9088C96.4857 18.0138 96.775 18.0562 97.0628 18.0327C97.3507 18.0513 97.6392 18.0058 97.9071 17.8998C98.175 17.7938 98.4156 17.6298 98.6112 17.4199C98.9948 16.8284 99.1716 16.1286 99.1144 15.4281C99.1351 13.6815 98.4512 12.8082 97.0628 12.8082Z" fill="white"/>
<path d="M1.50971 40.8613C1.34246 40.5937 1.21226 40.3052 1.1226 40.0033C1.02585 39.6566 0.978933 39.2981 0.983238 38.9385C0.985217 38.5139 1.05579 38.0923 1.19228 37.6898C1.32953 37.2684 1.55361 36.8797 1.85036 36.5484C2.17579 36.2018 2.568 35.9231 3.00393 35.7287C3.54854 35.5069 4.13392 35.3999 4.72267 35.4146C5.32554 35.4062 5.9229 35.5291 6.4724 35.7747C6.95974 35.9829 7.38203 36.3161 7.69564 36.7399C7.74319 36.7953 7.76806 36.8664 7.76533 36.9391C7.74827 36.9855 7.72481 37.0293 7.69564 37.0693L6.77434 37.9656C6.75124 37.9892 6.72356 38.008 6.69297 38.0208C6.66238 38.0337 6.62949 38.0403 6.59626 38.0403C6.56303 38.0403 6.53015 38.0337 6.49956 38.0208C6.46897 38.008 6.4413 37.9892 6.4182 37.9656C6.18861 37.7496 5.92765 37.5689 5.64399 37.4293C5.36086 37.2883 5.04738 37.2173 4.73042 37.2225C4.50194 37.2079 4.27302 37.2436 4.06016 37.3271C3.8473 37.4105 3.65578 37.5396 3.49942 37.7051C3.19612 38.0501 3.03817 38.497 3.05813 38.9538C3.05176 39.3637 3.16174 39.7671 3.37556 40.1182C3.54603 40.4088 3.76606 40.668 4.02589 40.8843H7.72661C7.87371 40.8843 7.94339 40.9609 7.94339 41.1217V42.4547C7.94339 42.6156 7.87371 42.6922 7.72661 42.6922H0.216778C0.069678 42.6922 0 42.6156 0 42.4547V41.0988C0 40.9379 0.069678 40.8613 0.216778 40.8613H1.50971Z" fill="white"/>
<path d="M9.94085 28.0758C9.9373 28.0464 9.94039 28.0166 9.94991 27.9886C9.95943 27.9606 9.97515 27.935 9.9959 27.9137C10.0167 27.8925 10.0419 27.876 10.0699 27.8656C10.0979 27.8552 10.1279 27.8511 10.1576 27.8536H12.1861C12.2164 27.8499 12.2473 27.8531 12.2762 27.8629C12.3052 27.8727 12.3315 27.889 12.3531 27.9104C12.3748 27.9318 12.3912 27.9579 12.4012 27.9865C12.4111 28.0152 12.4143 28.0457 12.4106 28.0758V39.3368C12.377 39.6581 12.4653 39.9803 12.6583 40.2408C12.8756 40.4167 13.1524 40.5043 13.4325 40.4859H14.2067C14.3295 40.4743 14.4532 40.4919 14.5677 40.5372C14.6821 40.5826 14.784 40.6542 14.8648 40.7464C15.036 41.0015 15.1126 41.3074 15.0816 41.612C15.124 41.9163 15.0494 42.2252 14.8726 42.4776C14.6828 42.622 14.4451 42.6904 14.2067 42.6692H12.4648C12.1079 42.7036 11.7477 42.6619 11.4085 42.547C11.0693 42.432 10.7589 42.2464 10.4983 42.0027C10.0595 41.4016 9.85094 40.6658 9.90988 39.9267L9.94085 28.0758Z" fill="white"/>
<path d="M18.9758 39.1453C18.966 39.3393 19.0063 39.5326 19.093 39.7069C19.1797 39.8811 19.3099 40.0306 19.4713 40.1412C19.8698 40.3866 20.3341 40.5068 20.803 40.4859H21.1746C21.2968 40.4774 21.4195 40.4949 21.5343 40.5372C21.6491 40.5795 21.7535 40.6456 21.8404 40.731C22.0083 40.9674 22.0852 41.2555 22.0572 41.543C22.0891 41.8516 22.0155 42.1618 21.8482 42.424C21.761 42.5114 21.6555 42.5786 21.539 42.621C21.4226 42.6633 21.2982 42.6798 21.1746 42.6692C20.6686 42.6786 20.1643 42.6088 19.6804 42.4623C19.4594 42.3828 19.2566 42.2606 19.0838 42.1027C18.911 41.9449 18.7717 41.7547 18.6739 41.543C18.4967 41.9404 18.1726 42.2556 17.7681 42.424C17.2361 42.6072 16.6742 42.6903 16.1113 42.6692H14.377C14.1455 42.6858 13.9141 42.6352 13.7112 42.5236C13.5641 42.4317 13.4944 42.2172 13.4944 41.8955C13.4878 41.5596 13.5593 41.2267 13.7035 40.9225C13.7604 40.7879 13.8578 40.6738 13.9824 40.5957C14.107 40.5176 14.2529 40.4793 14.4003 40.4859H15.4532C15.6577 40.4971 15.8619 40.4603 16.0493 40.3786C16.1955 40.3077 16.3089 40.1845 16.3668 40.0339C16.4437 39.833 16.4855 39.6206 16.4906 39.4058C16.4906 39.1453 16.4906 38.8236 16.4906 38.4482V33.8518C16.4851 33.8225 16.4869 33.7922 16.4958 33.7637C16.5047 33.7351 16.5205 33.7092 16.5419 33.6881C16.5632 33.6669 16.5895 33.6513 16.6183 33.6424C16.6472 33.6336 16.6777 33.6319 16.7074 33.6373H18.7358C18.7655 33.6319 18.7961 33.6336 18.8249 33.6424C18.8538 33.6513 18.88 33.6669 18.9014 33.6881C18.9227 33.7092 18.9385 33.7351 18.9475 33.7637C18.9564 33.7922 18.9582 33.8225 18.9526 33.8518L18.9758 39.1453ZM16.7074 31.4464C16.6777 31.4519 16.6472 31.4501 16.6183 31.4413C16.5895 31.4325 16.5632 31.4168 16.5419 31.3957C16.5205 31.3746 16.5047 31.3486 16.4958 31.3201C16.4869 31.2915 16.4851 31.2613 16.4906 31.2319V29.3397C16.4906 29.1942 16.5603 29.1176 16.7074 29.1176H18.821C18.9681 29.1176 19.0378 29.1942 19.0378 29.3397V31.2319C19.0433 31.2613 19.0416 31.2915 19.0326 31.3201C19.0237 31.3486 19.0079 31.3746 18.9865 31.3957C18.9652 31.4168 18.9389 31.4325 18.9101 31.4413C18.8813 31.4501 18.8507 31.4519 18.821 31.4464H16.7074Z" fill="white"/>
<path d="M25.7889 39.1453C25.7805 39.3391 25.8214 39.5318 25.908 39.7059C25.9946 39.8799 26.124 40.0296 26.2844 40.1411C26.6829 40.3865 27.1471 40.5067 27.616 40.4859H27.9954C28.1165 40.4775 28.2379 40.4951 28.3515 40.5374C28.465 40.5797 28.568 40.6457 28.6535 40.731C28.8214 40.9674 28.8983 41.2554 28.8703 41.543C28.9004 41.8504 28.8298 42.1593 28.669 42.424C28.5815 42.5109 28.4759 42.5779 28.3595 42.6202C28.2432 42.6625 28.1189 42.6792 27.9954 42.6691C27.4869 42.6785 26.98 42.6087 26.4934 42.4623C26.2724 42.3828 26.0696 42.2605 25.8969 42.1027C25.7241 41.9449 25.5847 41.7546 25.487 41.543C25.3139 41.9431 24.9884 42.2596 24.5811 42.424C24.0516 42.6065 23.4924 42.6896 22.9321 42.6691H21.1901C20.961 42.6856 20.7322 42.635 20.532 42.5236C20.3849 42.4316 20.3075 42.2172 20.3075 41.8954C20.3009 41.5596 20.3724 41.2267 20.5165 40.9225C20.5735 40.7879 20.6708 40.6738 20.7955 40.5957C20.9201 40.5176 21.066 40.4793 21.2133 40.4859H22.2662C22.4708 40.4977 22.6751 40.4609 22.8624 40.3786C23.0109 40.3086 23.1272 40.1854 23.1876 40.0339C23.2577 39.8314 23.2969 39.6197 23.3037 39.4057C23.3037 39.1453 23.3037 38.8235 23.3037 38.4482V33.8518C23.2981 33.8224 23.2999 33.7922 23.3088 33.7637C23.3178 33.7351 23.3336 33.7091 23.3549 33.688C23.3763 33.6669 23.4025 33.6512 23.4314 33.6424C23.4602 33.6336 23.4908 33.6318 23.5205 33.6373H25.5489C25.5786 33.6318 25.6092 33.6336 25.638 33.6424C25.6668 33.6512 25.6931 33.6669 25.7144 33.688C25.7358 33.7091 25.7516 33.7351 25.7605 33.7637C25.7694 33.7922 25.7712 33.8224 25.7657 33.8518L25.7889 39.1453ZM23.5282 46.8059C23.4978 46.8096 23.467 46.8064 23.438 46.7966C23.4091 46.7867 23.3828 46.7704 23.3611 46.749C23.3395 46.7276 23.323 46.7016 23.3131 46.6729C23.3031 46.6443 23.2999 46.6138 23.3037 46.5837V44.6992C23.2982 44.6688 23.3002 44.6376 23.3096 44.6082C23.3189 44.5787 23.3353 44.552 23.3574 44.5301C23.3794 44.5083 23.4065 44.4921 23.4362 44.4829C23.4659 44.4736 23.4975 44.4716 23.5282 44.477H25.6341C25.6647 44.4716 25.6963 44.4736 25.7261 44.4829C25.7558 44.4921 25.7828 44.5083 25.8049 44.5301C25.8269 44.552 25.8433 44.5787 25.8527 44.6082C25.862 44.6376 25.864 44.6688 25.8586 44.6992V46.5837C25.8623 46.6138 25.8591 46.6443 25.8492 46.6729C25.8392 46.7016 25.8228 46.7276 25.8011 46.749C25.7795 46.7704 25.7532 46.7867 25.7242 46.7966C25.6953 46.8064 25.6644 46.8096 25.6341 46.8059H23.5282Z" fill="white"/>
<path d="M27.9025 42.6692C27.6643 42.6872 27.4284 42.6131 27.2444 42.4623C27.0673 42.2157 26.9899 41.9123 27.0276 41.612C26.9987 41.3085 27.0722 41.0041 27.2367 40.7464C27.3183 40.6531 27.4214 40.5807 27.5373 40.5354C27.6533 40.4901 27.7785 40.4731 27.9025 40.4859H28.9864C29.267 40.5083 29.5453 40.4202 29.7606 40.2408C29.9599 39.9831 30.0514 39.6594 30.0161 39.3368V28.0758C30.0125 28.0464 30.0156 28.0166 30.0252 27.9886C30.0347 27.9606 30.0504 27.935 30.0711 27.9137C30.0919 27.8925 30.1172 27.876 30.1452 27.8656C30.1731 27.8552 30.2031 27.8511 30.2329 27.8536H32.2613C32.2917 27.8499 32.3225 27.8531 32.3515 27.8629C32.3804 27.8727 32.4067 27.889 32.4284 27.9104C32.45 27.9318 32.4665 27.9579 32.4764 27.9865C32.4864 28.0152 32.4896 28.0457 32.4858 28.0758V39.9267C32.5448 40.6658 32.3362 41.4016 31.8974 42.0027C31.6368 42.2464 31.3265 42.432 30.9872 42.547C30.648 42.6619 30.2878 42.7036 29.9309 42.6692H27.9025Z" fill="white"/>
<path d="M37.8589 42.447C37.8627 42.4771 37.8595 42.5076 37.8495 42.5363C37.8396 42.5649 37.8231 42.5909 37.8015 42.6123C37.7798 42.6338 37.7535 42.65 37.7246 42.6599C37.6956 42.6697 37.6648 42.6729 37.6344 42.6692H35.606C35.5762 42.6716 35.5462 42.6675 35.5183 42.6571C35.4903 42.6467 35.465 42.6303 35.4442 42.6091C35.4235 42.5878 35.4078 42.5622 35.3983 42.5342C35.3887 42.5061 35.3856 42.4764 35.3892 42.447V28.0758C35.3856 28.0464 35.3887 28.0166 35.3983 27.9886C35.4078 27.9606 35.4235 27.935 35.4442 27.9137C35.465 27.8925 35.4903 27.876 35.5183 27.8656C35.5462 27.8552 35.5762 27.8511 35.606 27.8536H37.6344C37.6648 27.8499 37.6956 27.8531 37.7246 27.8629C37.7535 27.8727 37.7798 27.889 37.8015 27.9104C37.8231 27.9318 37.8396 27.9579 37.8495 27.9865C37.8595 28.0152 37.8627 28.0457 37.8589 28.0758V42.447Z" fill="white"/>
<path d="M46.77 37.8124C46.8319 37.7128 46.9403 37.6974 47.1029 37.7664L48.8836 38.4635C48.961 38.4635 48.9997 38.5325 49.0075 38.5861C49.0209 38.6389 49.0209 38.6941 49.0075 38.7469C48.7438 39.2028 48.5185 39.6794 48.3339 40.1718C48.1146 40.7468 48.007 41.3576 48.0165 41.9721C47.9985 42.4611 48.091 42.9479 48.2874 43.3969C48.45 43.7537 48.6907 44.0703 48.992 44.3238C49.2725 44.5539 49.6 44.7212 49.952 44.8141C50.2878 44.904 50.6339 44.9503 50.9817 44.952C51.7233 44.9828 52.4513 44.749 53.0333 44.2932C53.311 44.012 53.524 43.6748 53.6576 43.3045C53.7912 42.9343 53.8424 42.5399 53.8076 42.1482V28.0758C53.8038 28.0457 53.807 28.0152 53.817 27.9865C53.8269 27.9579 53.8433 27.9318 53.865 27.9104C53.8866 27.889 53.9129 27.8727 53.9419 27.8629C53.9708 27.8531 54.0017 27.8499 54.0321 27.8536H56.0605C56.0903 27.8511 56.1202 27.8552 56.1482 27.8656C56.1762 27.876 56.2015 27.8925 56.2222 27.9137C56.243 27.935 56.2587 27.9606 56.2682 27.9886C56.2777 28.0166 56.2808 28.0464 56.2773 28.0758V42.2095C56.2917 42.9527 56.1602 43.6915 55.8902 44.3851C55.6511 44.9746 55.2744 45.4996 54.7908 45.9173C54.2955 46.3416 53.715 46.6575 53.0875 46.8442C52.3763 47.051 51.6378 47.1517 50.8965 47.143C50.1706 47.1507 49.4476 47.05 48.752 46.8442C48.1263 46.6534 47.5466 46.3379 47.0487 45.9173C46.5601 45.4973 46.1737 44.9736 45.9184 44.3851C45.6315 43.6876 45.4919 42.9394 45.508 42.1866C45.5135 41.3882 45.6414 40.5952 45.8874 39.8348C46.0919 39.1257 46.3886 38.4458 46.77 37.8124Z" fill="white"/>
<path d="M59.1187 28.0758C59.115 28.0457 59.1182 28.0152 59.1281 27.9865C59.1381 27.9579 59.1545 27.9318 59.1762 27.9104C59.1978 27.889 59.2241 27.8727 59.2531 27.8629C59.282 27.8531 59.3129 27.8499 59.3433 27.8536H61.3717C61.3989 27.8555 61.4254 27.8628 61.4496 27.8751C61.4739 27.8875 61.4953 27.9045 61.5127 27.9253C61.5301 27.9461 61.543 27.9701 61.5507 27.996C61.5584 28.0219 61.5607 28.049 61.5575 28.0758V39.3368C61.5222 39.6594 61.6137 39.9831 61.813 40.2408C62.0283 40.4202 62.3066 40.5083 62.5872 40.4859H63.3614C63.4841 40.4743 63.6079 40.4919 63.7223 40.5372C63.8368 40.5826 63.9387 40.6542 64.0195 40.7464C64.194 41.0002 64.2734 41.3064 64.244 41.612C64.2864 41.9163 64.2118 42.2252 64.035 42.4776C63.8429 42.6232 63.6023 42.6916 63.3614 42.6692H61.6194C61.2626 42.7036 60.9024 42.6619 60.5631 42.547C60.2239 42.432 59.9135 42.2464 59.6529 42.0027C59.2142 41.4016 59.0056 40.6658 59.0645 39.9267L59.1187 28.0758Z" fill="white"/>
<path d="M65.6607 37.8584C65.6547 37.1303 65.7779 36.4069 66.0246 35.7211C66.2253 35.1769 66.5514 34.6864 66.9769 34.2885C67.3865 33.9204 67.8728 33.6458 68.4014 33.4842C68.9825 33.3176 69.5849 33.2351 70.1899 33.239C70.8038 33.2324 71.4149 33.3203 72.0015 33.4995C72.541 33.6599 73.0362 33.9403 73.4493 34.3192C73.884 34.7474 74.208 35.2729 74.3938 35.8513C74.64 36.5791 74.7553 37.344 74.7345 38.1112V38.4865C74.7427 38.6064 74.7427 38.7267 74.7345 38.8466C74.7001 39.3179 74.856 39.7835 75.168 40.1412C75.2915 40.2618 75.4378 40.357 75.5986 40.4214C75.7593 40.4858 75.9314 40.5182 76.1048 40.5166H76.7397C76.8619 40.5081 76.9846 40.5256 77.0994 40.5679C77.2142 40.6102 77.3186 40.6763 77.4055 40.7617C77.5698 40.9998 77.6463 41.2865 77.6223 41.5737C77.6541 41.8823 77.5805 42.1924 77.4133 42.4547C77.3261 42.542 77.2205 42.6093 77.1041 42.6517C76.9877 42.694 76.8633 42.7105 76.7397 42.6998H75.9655C75.6895 42.6849 75.4164 42.636 75.1526 42.5543C74.8791 42.4733 74.6184 42.3547 74.3784 42.2019C74.1168 42.031 73.893 41.8095 73.7203 41.5508C73.3307 42.0211 72.8157 42.374 72.2338 42.5696C71.5845 42.781 70.9043 42.8845 70.2208 42.876C69.548 42.8856 68.8783 42.7846 68.2389 42.5773C67.6667 42.3905 67.1577 42.0512 66.7679 41.5967C66.6271 41.8192 66.446 42.014 66.2337 42.1713C66.0357 42.3116 65.8196 42.425 65.5911 42.5083C65.369 42.5914 65.1377 42.648 64.902 42.6769C64.6839 42.7066 64.4641 42.722 64.2439 42.7228H63.4697C63.3468 42.7319 63.2233 42.7139 63.1082 42.6702C62.9931 42.6265 62.8892 42.5581 62.8039 42.47C62.6345 42.2199 62.5579 41.9194 62.5871 41.6197C62.5531 41.3183 62.6271 41.0147 62.7962 40.7617C62.887 40.681 62.9937 40.6196 63.1096 40.5813C63.2255 40.5431 63.3481 40.5289 63.4697 40.5396H64.3291C64.5075 40.538 64.6836 40.4998 64.8462 40.4272C65.0088 40.3547 65.1544 40.2495 65.2736 40.1182C65.6007 39.6759 65.7572 39.1326 65.7149 38.5861C65.7078 38.479 65.7078 38.3715 65.7149 38.2644L65.6607 37.8584ZM70.1821 35.4146C69.8881 35.3939 69.5934 35.4444 69.3235 35.5619C69.0537 35.6794 68.8169 35.8602 68.6337 36.0888C68.2608 36.6706 68.0846 37.3547 68.1305 38.0422C68.071 38.7429 68.248 39.4434 68.6337 40.034C68.8287 40.2442 69.0693 40.408 69.3376 40.5128C69.6058 40.6177 69.8946 40.6609 70.1821 40.6391C70.4703 40.6599 70.7595 40.6155 71.0277 40.5093C71.296 40.4032 71.5363 40.238 71.7306 40.0263C72.1146 39.4379 72.2915 38.7404 72.2338 38.0422C72.2544 36.2905 71.5705 35.4146 70.1821 35.4146Z" fill="white"/>
<path d="M78.7991 40.4859C78.4939 40.1368 78.2481 39.741 78.0713 39.3139C77.8725 38.7956 77.7778 38.2439 77.7926 37.6898C77.7972 37.1703 77.878 36.6542 78.0326 36.1577C78.1842 35.6309 78.4482 35.1424 78.8068 34.7251C79.2128 34.2703 79.715 33.9093 80.2778 33.668C80.9946 33.3786 81.7646 33.2403 82.5385 33.262C83.3863 33.2361 84.2288 33.4038 85.0005 33.7523C85.6042 34.0389 86.1338 34.4581 86.5489 34.978C86.5657 35.0023 86.5773 35.0298 86.5829 35.0587C86.5885 35.0877 86.588 35.1174 86.5815 35.1462C86.575 35.1749 86.5625 35.202 86.5449 35.2258C86.5273 35.2496 86.505 35.2695 86.4792 35.2844L85.3644 36.5024C85.256 36.6097 85.1553 36.602 85.0547 36.5024C84.7645 36.1755 84.4073 35.9136 84.0068 35.7339C83.6063 35.5543 83.1718 35.4611 82.7321 35.4606C82.4139 35.4402 82.0951 35.4878 81.7972 35.6002C81.4993 35.7125 81.2293 35.887 81.0056 36.1117C80.5843 36.5982 80.3681 37.2262 80.4017 37.866C80.3918 38.2491 80.463 38.6301 80.6107 38.9844C80.7351 39.2617 80.8993 39.5198 81.0985 39.7505C81.2577 39.9534 81.4516 40.1271 81.6714 40.2638C81.818 40.3644 81.9766 40.4467 82.1437 40.5089H86.9205C87.0676 40.5089 87.1373 40.5855 87.1373 40.731V42.47C87.1373 42.6156 87.0676 42.6921 86.9205 42.6921H76.67C76.547 42.7012 76.4236 42.6832 76.3085 42.6395C76.1934 42.5958 76.0894 42.5275 76.0042 42.4394C75.8347 42.1892 75.7581 41.8888 75.7874 41.589C75.7534 41.2877 75.8273 40.984 75.9964 40.731C76.0873 40.6503 76.194 40.5889 76.3099 40.5507C76.4257 40.5124 76.5483 40.4982 76.67 40.5089L78.7991 40.4859Z" fill="white"/>
<path d="M95.4446 40.4859H97.7672C98.0474 40.5043 98.3241 40.4166 98.5414 40.2408C98.7407 39.9831 98.8322 39.6594 98.7969 39.3368V28.0757C98.7969 27.9302 98.8666 27.8536 99.0137 27.8536H101.042C101.073 27.8499 101.103 27.853 101.132 27.8629C101.161 27.8727 101.188 27.889 101.209 27.9104C101.231 27.9318 101.247 27.9579 101.257 27.9865C101.267 28.0152 101.27 28.0457 101.267 28.0757V39.9267C101.329 40.6673 101.117 41.4051 100.67 42.0027C100.412 42.247 100.103 42.4331 99.7649 42.5482C99.4268 42.6632 99.0675 42.7045 98.7117 42.6691H89.0574C88.9103 42.6691 88.8406 42.5926 88.8406 42.447V40.708C88.8406 40.5625 88.9103 40.4859 89.0574 40.4859H92.9826V31.14C92.9826 30.9944 93.0523 30.9178 93.1994 30.9178H95.2278C95.3749 30.9178 95.4446 30.9944 95.4446 31.14V40.4859ZM92.6497 28.3975C92.5418 28.2248 92.4559 28.0395 92.3942 27.8459C92.3278 27.622 92.2939 27.3898 92.2935 27.1565C92.296 26.8964 92.3377 26.6382 92.4174 26.3904C92.5008 26.131 92.6409 25.8931 92.8278 25.6933C93.0315 25.4753 93.276 25.2984 93.5478 25.1724C93.8893 25.0254 94.2594 24.9548 94.6317 24.9655C95.0109 24.9592 95.3868 25.0377 95.731 25.1954C96.0329 25.3316 96.2982 25.5363 96.5052 25.7929C96.5246 25.8226 96.5349 25.8572 96.5349 25.8925C96.5349 25.9278 96.5246 25.9624 96.5052 25.9921L95.9323 26.536C95.8394 26.6049 95.7698 26.6126 95.7078 26.536C95.5659 26.394 95.4043 26.2727 95.2278 26.1759C95.053 26.0786 94.8554 26.0284 94.6549 26.0304C94.5108 26.0262 94.3675 26.052 94.2341 26.1061C94.1007 26.1602 93.9803 26.2414 93.8807 26.3444C93.696 26.5579 93.5945 26.8295 93.5942 27.1105C93.5835 27.3843 93.6652 27.6538 93.8265 27.8766C93.9512 28.0616 94.1117 28.2205 94.2988 28.3439H96.5285C96.6136 28.3439 96.6601 28.3975 96.6601 28.4971V29.3014C96.6601 29.4087 96.6136 29.4546 96.5285 29.4546H91.8832C91.7903 29.4546 91.7516 29.4087 91.7516 29.3014V28.4971C91.7516 28.3975 91.7516 28.3439 91.8832 28.3439L92.6497 28.3975Z" fill="white"/>
<path d="M110.216 0V62H151.216V0H110.216ZM128.987 10.004C129.008 9.67534 129.149 9.36709 129.382 9.14183C129.615 8.91658 129.922 8.79122 130.241 8.79122C130.56 8.79122 130.867 8.91658 131.1 9.14183C131.333 9.36709 131.474 9.67534 131.494 10.004V25.7008C131.474 26.0294 131.333 26.3377 131.1 26.5629C130.867 26.7882 130.56 26.9135 130.241 26.9135C129.922 26.9135 129.615 26.7882 129.382 26.5629C129.149 26.3377 129.008 26.0294 128.987 25.7008V10.004ZM131.494 44.884C131.491 47.1117 130.633 49.2473 129.106 50.8225C127.58 52.3977 125.51 53.2839 123.351 53.2867H122.588C120.43 53.2839 118.36 52.3977 116.833 50.8225C115.307 49.2473 114.448 47.1117 114.445 44.884C114.445 44.5417 114.577 44.2134 114.812 43.9714C115.046 43.7293 115.364 43.5933 115.696 43.5933C116.028 43.5933 116.346 43.7293 116.581 43.9714C116.815 44.2134 116.947 44.5417 116.947 44.884C116.95 46.4271 117.545 47.9061 118.602 48.9972C119.66 50.0883 121.093 50.7025 122.588 50.7054H123.362C124.857 50.7025 126.289 50.0881 127.346 48.9969C128.402 47.9056 128.996 46.4266 128.998 44.884V36.1118C129.032 35.795 129.178 35.5023 129.409 35.2898C129.639 35.0773 129.937 34.9598 130.246 34.9598C130.555 34.9598 130.853 35.0773 131.083 35.2898C131.314 35.5023 131.46 35.795 131.494 36.1118V44.884ZM134.94 37.6541C134.645 37.6531 134.356 37.5617 134.111 37.3916C133.866 37.2215 133.675 36.9802 133.563 36.6983C133.451 36.4164 133.422 36.1064 133.48 35.8076C133.538 35.5088 133.681 35.2344 133.89 35.0193C134.1 34.8041 134.366 34.6577 134.656 34.5987C134.946 34.5396 135.246 34.5704 135.519 34.6873C135.791 34.8042 136.025 35.0019 136.189 35.2554C136.353 35.509 136.44 35.8069 136.44 36.1118C136.441 36.3141 136.403 36.5145 136.328 36.7016C136.254 36.8887 136.144 37.0588 136.006 37.2021C135.867 37.3454 135.703 37.4591 135.522 37.5366C135.341 37.6142 135.147 37.6541 134.951 37.6541H134.94ZM139.019 37.6541C138.724 37.6531 138.436 37.5617 138.191 37.3916C137.945 37.2215 137.755 36.9802 137.642 36.6983C137.53 36.4164 137.501 36.1064 137.559 35.8076C137.618 35.5088 137.76 35.2344 137.97 35.0193C138.179 34.8041 138.445 34.6577 138.735 34.5987C139.025 34.5396 139.325 34.5704 139.598 34.6873C139.871 34.8042 140.104 35.0019 140.268 35.2554C140.432 35.509 140.519 35.8069 140.519 36.1118C140.52 36.3141 140.482 36.5145 140.407 36.7016C140.333 36.8887 140.223 37.0588 140.085 37.2021C139.947 37.3454 139.782 37.4591 139.601 37.5366C139.42 37.6142 139.226 37.6541 139.03 37.6541H139.019ZM138.241 32.1755H130.197C128.534 32.1769 126.94 32.8588 125.763 34.0716C124.587 35.2844 123.925 36.9291 123.922 38.6449V45.7516C123.922 46.0939 123.79 46.4222 123.556 46.6642C123.321 46.9063 123.003 47.0422 122.671 47.0422C122.34 47.0422 122.022 46.9063 121.787 46.6642C121.552 46.4222 121.421 46.0939 121.421 45.7516V38.6449C121.423 36.244 122.349 33.9422 123.994 32.2444C125.639 30.5467 127.87 29.5917 130.197 29.5888H138.241C139.896 29.5761 141.479 28.8891 142.646 27.6774C143.812 26.4657 144.468 24.8274 144.469 23.1195C144.469 19.9651 142.689 17.8444 140.037 17.8444C138.869 17.857 137.753 18.3443 136.931 19.2005C136.109 20.0567 135.647 21.2127 135.646 22.4179C135.646 23.1677 135.781 24.1691 136.414 24.694C136.548 24.7975 136.66 24.9277 136.745 25.0769C136.829 25.226 136.883 25.3911 136.905 25.5623C136.926 25.7336 136.914 25.9075 136.869 26.0737C136.824 26.24 136.747 26.3953 136.643 26.5304C136.539 26.6655 136.409 26.7776 136.262 26.8602C136.115 26.9428 135.954 26.9941 135.787 27.0111C135.621 27.0281 135.453 27.0105 135.293 26.9593C135.133 26.9081 134.985 26.8243 134.857 26.713C133.736 25.7865 133.145 24.303 133.145 22.4286C133.145 20.5337 133.872 18.716 135.167 17.3731C136.463 16.0302 138.221 15.2715 140.057 15.263C140.978 15.2499 141.891 15.4334 142.74 15.8021C143.588 16.1707 144.354 16.7165 144.988 17.4052C146.345 18.966 147.065 21.0077 146.996 23.1034C146.998 25.5034 146.077 27.8061 144.436 29.5067C142.794 31.2073 140.567 32.167 138.241 32.1755Z" fill="white"/>
</svg>
