<svg width="433" height="671" viewBox="0 0 433 671" fill="none" xmlns="http://www.w3.org/2000/svg">
<path d="M168.42 0.929993C217.7 41.4 267.21 81.6 316.61 121.92C316.62 178.27 316.39 234.63 316.31 290.98C316.1 326.48 316.37 361.99 315.89 397.49C309.64 392.28 303.03 387.51 296.76 382.33C296.84 299.56 296.75 216.78 296.81 134C296.71 132.53 297.01 130.99 296.56 129.57C261.35 101.01 225.94 72.68 190.77 44.06C190.59 76.53 190.17 109 190.21 141.46C183.56 146.81 176.42 151.52 169.69 156.77C169.32 104.82 168.59 52.88 168.42 0.929993Z" fill="#FEFEFE"/>
<path d="M0.850037 346C27.29 324.23 53.7 302.43 80.16 280.7C80.25 289.59 80.1 298.49 80.25 307.38C60.76 324.41 40.95 341.08 21.32 357.94C21.45 393.55 21.95 429.16 21.8 464.77C14.5 470.07 7.59002 475.89 0.27002 481.15C0.36002 436.1 0.670037 391.05 0.850037 346Z" fill="#FEFEFE"/>
<path d="M7.71002 494.88C76.17 444.83 144.66 394.81 213.1 344.74C284.51 396.51 355.95 448.22 427.37 499.97C413.9 500.01 400.43 500.01 386.95 499.97C357.29 478.02 327.37 456.4 297.63 434.55C269.15 413.84 240.85 392.88 212.28 372.3C155.13 414.81 97.73 456.98 40.44 499.3C32.64 499.39 24.84 499.58 17.05 499.75C13.67 499.89 10.29 498.99 6.94003 499.75C4.97003 499.87 3.00004 499.99 1.04004 500.14C2.92004 497.99 5.47002 496.61 7.71002 494.88Z" fill="#FEFEFE"/>
<path d="M196.25 420.75C200.25 420.74 204.24 420.74 208.25 420.75C208.25 424.75 208.25 428.75 208.24 432.75C204.24 432.74 200.24 432.75 196.25 432.75C196.25 428.74 196.25 424.75 196.25 420.75Z" fill="#FEFEFE"/>
<path d="M220.25 432.75C220.27 428.73 220.16 424.71 220.34 420.69C224.3 420.78 228.27 420.74 232.25 420.75C232.25 424.75 232.25 428.75 232.24 432.75C228.24 432.74 224.25 432.75 220.25 432.75Z" fill="#FEFEFE"/>
<path d="M196.25 441.76C200.24 441.75 204.24 441.75 208.25 441.75C208.24 445.75 208.27 449.76 208.22 453.77C204.22 453.74 200.24 453.75 196.25 453.75C196.25 449.75 196.25 445.75 196.25 441.76Z" fill="#FEFEFE"/>
<path d="M220.25 441.76C224.24 441.75 228.24 441.75 232.25 441.75C232.25 445.75 232.25 449.75 232.24 453.75C228.24 453.75 224.24 453.75 220.25 453.75C220.25 449.75 220.25 445.75 220.25 441.76Z" fill="#FEFEFE"/>
<path d="M1.42004 645.18C7.04004 645.17 12.66 645.14 18.28 645.21C18.28 646.72 18.28 648.24 18.29 649.78C14.48 649.86 10.67 649.82 6.87003 649.83C6.86003 651.69 6.85004 653.55 6.85004 655.43C10.05 655.48 13.25 655.46 16.46 655.48C16.46 657 16.46 658.53 16.46 660.07C13.26 660.08 10.06 660.07 6.87003 660.08C6.85003 663.38 6.86004 666.68 6.85004 670C5.03004 669.99 3.21002 669.98 1.40002 669.97C1.42002 661.71 1.39004 653.45 1.42004 645.18Z" fill="#FEFEFE"/>
<path d="M75.02 648.14C79.37 642.83 89.63 643.74 92.15 650.48C90.62 651.09 89.09 651.7 87.56 652.3C85.95 649.04 80.45 648.28 79 652.02C78.36 655.87 77.98 660.16 79.36 663.88C81.86 667.6 88.35 665.1 87.48 660.49C86.1 660.45 84.72 660.43 83.35 660.43C83.34 659.01 83.34 657.61 83.35 656.22C86.49 656.19 89.62 656.19 92.77 656.22C92.68 659.78 93.07 663.75 90.84 666.8C87.75 670.97 81.36 671.39 77.1 668.91C74.05 667.12 73.04 663.35 73.02 660.04C73 656.04 72.53 651.57 75.02 648.14Z" fill="#FEFEFE"/>
<path d="M190.52 645.17C192.24 645.16 193.96 645.17 195.69 645.19C195.99 651.96 195.15 658.91 196.1 665.58C196.67 665.71 197.81 665.97 198.38 666.1C198.38 667.48 198.38 668.87 198.39 670.28C195.64 670.26 191.54 670.5 190.78 667.06C190.15 659.79 190.65 652.46 190.52 645.17Z" fill="#FEFEFE"/>
<path d="M210.59 651.14C212.5 642.81 226.11 642.59 228.57 650.66C227.04 651.28 225.52 651.92 224 652.58C222.89 650.86 221.29 648.98 218.98 649.57C215.46 650.01 215.45 654.21 215.49 656.94C215.64 659.79 214.89 663.81 217.99 665.38C220.53 666.48 222.83 664.71 224.04 662.58C225.59 663.26 227.14 663.96 228.68 664.69C225.93 672.08 213.68 672.51 210.92 664.99C209.54 660.56 209.68 655.64 210.59 651.14Z" fill="#FEFEFE"/>
<path d="M367.08 645.17C368.8 645.17 370.53 645.17 372.27 645.2C372.25 646.63 372.25 648.07 372.25 649.52C370.53 649.52 368.82 649.52 367.12 649.54C367.09 648.07 367.07 646.62 367.08 645.17Z" fill="#FEFEFE"/>
<path d="M290.71 647C292.41 646.99 294.13 647 295.84 647.01C295.85 648.77 295.85 650.53 295.87 652.31C296.58 652.32 298.01 652.34 298.73 652.35C298.72 653.58 298.72 654.82 298.73 656.07C297.77 656.08 296.81 656.1 295.87 656.13C296.06 659.26 295.38 662.56 296.25 665.6C296.87 665.72 298.11 665.95 298.73 666.07C298.72 667.46 298.73 668.86 298.73 670.27C296.16 670.16 292.5 670.62 291.27 667.71C290.15 664 290.86 660.03 290.73 656.22C290.3 656.17 289.44 656.08 289.01 656.03C289 655.12 289 653.3 289 652.39C289.42 652.36 290.26 652.31 290.68 652.28C290.68 650.51 290.69 648.75 290.71 647Z" fill="#FEFEFE"/>
<path d="M355.21 647.01C356.91 647 358.62 646.99 360.34 647C360.34 648.76 360.35 650.53 360.37 652.31C361.08 652.32 362.51 652.34 363.22 652.34C363.22 653.28 363.23 655.15 363.23 656.09C362.51 656.1 361.08 656.12 360.36 656.13C360.37 658.78 360.29 661.44 360.38 664.11C359.98 665.91 362.07 665.87 363.23 666.05C363.22 667.45 363.22 668.86 363.23 670.28C360.56 670.19 356.7 670.58 355.65 667.41C354.74 663.74 355.36 659.9 355.19 656.16L353.52 656.04C353.51 655.18 353.49 653.47 353.48 652.62C356.42 652.49 354.78 648.92 355.21 647.01Z" fill="#FEFEFE"/>
<path d="M24.41 652.56C28.37 651.03 34.04 652.09 35.68 656.46C36.74 659.68 36.76 663.38 35.4 666.52C33.11 670.86 26.82 671.44 22.95 669.02C19.69 666.88 19.42 662.48 19.82 658.98C20.02 656.19 21.7 653.48 24.41 652.56ZM26.44 656.63C24.3 658.29 24.93 661.55 25.21 663.91C25.6 666.78 30.41 666.84 30.88 663.99C31.92 660.9 31.09 654.48 26.44 656.63Z" fill="#FEFEFE"/>
<path d="M40.34 652.31C41.88 652.85 46.41 650.95 45.42 653.93C47.59 651.61 51.05 651.41 53.71 652.96C52.93 654.41 52.15 655.88 51.35 657.34C49.65 656.58 46.77 655.71 45.89 658.06C45.07 661.99 45.76 666.07 45.44 670.06C43.73 670.01 42.03 670 40.33 669.97C40.33 664.08 40.31 658.2 40.34 652.31Z" fill="#FEFEFE"/>
<path d="M96.24 657.01C98.07 650.65 108.31 650.1 111.27 655.79C112.36 657.91 112.24 660.37 112.34 662.69C108.43 662.72 104.51 662.66 100.61 662.75C101.27 667.06 106.65 666.93 109.3 664.53C110.28 665.48 111.26 666.46 112.17 667.51C108.56 670.45 103.12 671.57 99 669.02C95.28 666.38 95.19 661.02 96.24 657.01ZM100.64 659.23C102.89 659.3 105.15 659.31 107.41 659.26C107.54 654.82 100.54 654.78 100.64 659.23Z" fill="#FEFEFE"/>
<path d="M116.1 652.32C117.78 652.79 121.26 651.08 121.41 653.67C124.4 650.61 130.63 651.59 131.7 656C132.41 660.61 131.86 665.33 132.02 670C130.3 670 128.58 670 126.86 670.02C126.72 666.02 127.09 662.01 126.64 658.05C126.02 655.62 122.12 655.68 121.48 658.06C120.98 662.02 121.4 666.03 121.25 670.01C119.52 670 117.81 670 116.09 670.01C116.07 664.11 116.06 658.21 116.1 652.32Z" fill="#FEFEFE"/>
<path d="M136.22 657.07C138 650.69 148.21 650.09 151.23 655.72C152.36 657.85 152.24 660.34 152.34 662.69C148.43 662.72 144.51 662.66 140.61 662.75C141.27 667.06 146.65 666.93 149.3 664.53C150.29 665.48 151.28 666.47 152.15 667.56C148.52 670.42 143.15 671.57 139.04 669.05C135.29 666.43 135.19 661.08 136.22 657.07ZM140.62 659.26C142.88 659.3 145.15 659.3 147.42 659.26C147.52 654.81 140.51 654.79 140.62 659.26Z" fill="#FEFEFE"/>
<path d="M161.09 653.87C163.4 651.75 166.75 651.35 169.47 652.94C168.69 654.41 167.9 655.88 167.09 657.34C165.27 656.44 162.1 655.78 161.5 658.48C160.97 662.29 161.39 666.17 161.25 670.01C159.53 670 157.81 670 156.1 670.01C156.06 664.12 156.07 658.23 156.09 652.34C157.8 652.32 159.51 652.32 161.24 652.32L161.09 653.87Z" fill="#FEFEFE"/>
<path d="M171.1 653.78C174.52 651.75 178.77 651.41 182.55 652.53C184.49 653.08 185.87 654.92 185.96 656.93C186.23 661.29 186.01 665.67 186.07 670.04C184.21 669.94 182.19 670.31 180.55 669.23C178.12 670.62 174.97 670.92 172.51 669.46C169.29 667.44 169.54 661.68 173.15 660.22C175.68 658.97 178.6 659.38 181.32 659.25C181.4 654.7 175.73 655.8 173.06 657.2C172.4 656.05 171.75 654.91 171.1 653.78ZM175.31 664.16C174.6 666.62 177.93 666.93 179.54 666.34C181.25 665.99 181.02 664.04 181.3 662.73C179.37 662.92 176.34 661.96 175.31 664.16Z" fill="#FEFEFE"/>
<path d="M235.45 652.64C239.17 651.15 244.37 651.82 246.51 655.57C248.05 658.75 248.03 662.62 246.9 665.94C244.35 672.35 232.97 671.87 231.39 664.97C230.36 660.67 230.67 654.56 235.45 652.64ZM236.75 657.64C235.74 660.48 235.39 666.67 239.97 666.06C243.03 665.35 242.44 661.37 242.27 659.01C242.39 656.12 237.94 655.12 236.75 657.64Z" fill="#FEFEFE"/>
<path d="M251.34 652.33C253.02 652.8 256.43 651.04 256.64 653.65C259.65 650.67 265.8 651.54 266.94 655.94C267.68 660.57 267.11 665.32 267.26 670.01C265.54 670 263.82 670 262.11 670.01C261.96 665.98 262.36 661.93 261.87 657.94C261.13 655.65 257.41 655.74 256.72 658.02C256.25 661.98 256.62 665.98 256.53 669.96C254.79 669.98 253.06 669.98 251.33 670C251.32 664.11 251.32 658.22 251.34 652.33Z" fill="#FEFEFE"/>
<path d="M273.36 653.48C277.27 650.79 282.63 651.83 286.47 654.17C285.64 655.23 284.81 656.29 283.98 657.35C281.72 656.45 278.13 654.5 276.34 657.08C277.2 659.69 280.92 658.41 283 659.35C287.62 660.14 288.11 667.03 284.24 669.13C279.87 671.53 274.35 670.42 270.42 667.65C271.31 666.53 272.22 665.43 273.14 664.34C275.58 665.71 280.13 668.08 281.97 664.84C281.11 662.29 277.49 663.54 275.48 662.64C271.25 662.02 270.07 655.93 273.36 653.48Z" fill="#FEFEFE"/>
<path d="M307.72 653.82C309.97 651.73 313.31 651.34 315.96 652.97C315.18 654.41 314.4 655.87 313.63 657.33C311.9 656.62 309.1 655.71 308.16 658.02C307.31 661.94 307.96 666.02 307.75 670.01C306.03 670 304.3 670 302.6 670.02C302.56 664.12 302.57 658.23 302.59 652.35C304.28 652.32 305.97 652.31 307.67 652.3C307.68 652.68 307.71 653.44 307.72 653.82Z" fill="#FEFEFE"/>
<path d="M317.62 653.75C321.05 651.76 325.27 651.39 329.04 652.53C331.06 653.07 332.4 655.03 332.49 657.09C332.71 661.38 332.52 665.7 332.57 670C330.8 669.88 328.78 670.47 327.29 669.23C325.03 670.26 322.43 670.91 320.03 669.96C316.25 668.74 315.62 662.89 318.81 660.71C321.45 658.89 324.8 659.39 327.82 659.24C327.84 654.59 322.21 656.02 319.41 657.05C318.8 655.94 318.21 654.84 317.62 653.75ZM321.73 664.54C321.6 666.88 324.76 666.84 326.32 666.24C327.84 665.72 327.5 663.91 327.74 662.68C325.78 662.95 322.34 661.9 321.73 664.54Z" fill="#FEFEFE"/>
<path d="M337.82 654.79C341.19 650.61 348.64 651 351.55 655.57C350.33 656.31 349.17 657.16 347.91 657.82C346.32 656.61 343.82 655.3 342.22 657.23C341.1 659.53 341.19 662.44 342.05 664.82C343.41 667.01 346.44 666.02 347.82 664.37C349.08 665.19 350.34 666.03 351.59 666.89C348.13 671.94 338.81 671.67 336.76 665.52C335.86 662.03 335.71 657.88 337.82 654.79Z" fill="#FEFEFE"/>
<path d="M367.1 652.34C368.79 652.32 370.49 652.31 372.2 652.3C372.33 658.2 372.25 664.11 372.25 670.01C370.52 670 368.8 670 367.09 670.01C367.07 664.12 367.06 658.23 367.1 652.34Z" fill="#FEFEFE"/>
<path d="M380.47 652.63C384.18 651.16 389.35 651.82 391.5 655.54C393.05 658.73 393.03 662.61 391.9 665.94C389.35 672.35 377.98 671.87 376.39 664.98C375.35 660.66 375.68 654.53 380.47 652.63ZM381.77 657.6C380.96 660.25 380.21 665.47 383.97 666.09C387.83 666.46 387.63 661.57 387.27 658.99C387.37 656.13 383 655.14 381.77 657.6Z" fill="#FEFEFE"/>
<path d="M401.71 653.7C404.8 650.85 410.89 651.37 412.15 655.83C413 660.47 412.29 665.25 412.55 669.95C410.81 669.97 409.07 669.98 407.35 670C407.23 666 407.59 661.98 407.14 658.02C406.48 655.65 402.69 655.72 401.97 658.01C401.49 661.98 401.88 666 401.75 670C400.03 670 398.3 670 396.6 670.02C396.56 664.12 396.57 658.23 396.59 652.34C398.28 652.32 399.97 652.31 401.68 652.3L401.71 653.7Z" fill="#FEFEFE"/>
<path d="M418.52 653.55C422.4 650.81 427.99 651.67 431.71 654.34C430.86 655.33 430.02 656.33 429.18 657.33C426.88 656.4 423.25 654.48 421.5 657.19C422.77 659.68 426.17 658.44 428.4 659.39C432.72 660.24 433.32 666.58 429.88 668.86C425.53 671.65 419.71 670.47 415.66 667.67C416.56 666.54 417.49 665.43 418.44 664.35C420.84 665.74 425.44 668.08 427.2 664.82C426.48 662.4 423.01 663.51 421.14 662.73C416.73 662.39 415.17 656.17 418.52 653.55Z" fill="#FEFEFE"/>
<path d="M195 161.85C205.07 153.68 215.27 145.67 225.28 137.43C225.16 164.95 225.41 192.48 224.98 219.99C224.56 259 224.85 298.03 224.54 337.04C221.11 333.91 217.37 331.16 213.94 328.04C210.51 330.82 207.37 333.92 204.18 336.96C204.28 315.32 204.05 293.69 203.8 272.06C203.66 242.38 203.65 212.69 203.43 183.01C179.11 201.86 154.62 220.49 130.17 239.18C130.11 257.46 130.03 275.74 130.12 294.03C129.47 301.03 130.56 308.04 129.94 315.04C130.4 338.71 129.91 362.38 130.13 386.05C130.43 388.08 128.4 389.06 127.11 390.15C120.85 394.69 114.94 399.71 108.59 404.11C108.42 346.42 108.51 288.72 108.54 231.03C137.59 208.27 166.13 184.85 195 161.85Z" fill="#648BF0"/>
<path d="M343.54 220.85C359.97 234.63 376.36 248.46 392.77 262.27C403.8 271.37 414.48 280.91 425.73 289.73C425.69 329.48 425.41 369.23 425.29 408.97C425.28 411.3 425.47 413.68 424.84 415.97C424.74 417.28 424.85 418.59 425.16 419.89C425.21 421.28 425.21 422.67 425.15 424.07C424.22 440.51 424.95 457.08 424.66 473.57C418.11 467.63 411.33 461.96 404.79 456.02C404.74 402.99 404.37 349.95 404.25 296.92C384.04 280.08 363.74 263.34 343.5 246.54C343.52 237.98 343.44 229.41 343.54 220.85Z" fill="#648BF0"/>
<path d="M1.03998 500.14C2.99998 499.99 4.96997 499.87 6.93997 499.75C14.31 500 21.69 499.94 29.07 500.08L29.68 500.49C39.65 520.04 49.89 539.46 59.92 558.98C61.44 557.64 62.06 555.64 63.01 553.91C72.18 535.91 81.69 518.07 90.74 500.02C100.27 500.03 109.81 499.91 119.34 500.08C119.22 547.24 119.32 594.4 119.29 641.56C110.65 641.82 102.01 641.43 93.38 641.78C93.04 611.55 93.25 581.3 93.27 551.06C91.42 551.62 91.03 553.69 90.1 555.13C80.28 573.07 70.48 591.02 60.59 608.92C60.33 610.5 59.05 609.16 58.8 608.48C49.79 592.32 40.99 576.03 32.01 559.85C30.32 556.79 28.82 553.6 26.71 550.81C26.55 581.1 26.73 611.39 26.62 641.68C18.2 641.66 9.77996 641.54 1.36996 641.75C0.939965 640.52 0.72996 639.27 0.73996 637.99C0.87996 606.98 0.619956 575.95 0.829956 544.93C1.84996 539.31 0.429979 533.7 0.759979 528.07C0.659979 518.77 0.969956 509.46 0.579956 500.18L1.03998 500.14Z" fill="#648BF0"/>
<path d="M158.69 500.06C167.39 499.93 176.09 500.03 184.79 500C184.58 547.23 184.87 594.47 184.65 641.7C176.01 641.55 167.37 641.71 158.73 641.61C158.7 594.43 158.79 547.24 158.69 500.06Z" fill="#648BF0"/>
<path d="M224.54 500.01C233.24 499.99 241.94 500 250.65 500C250.49 537.56 250.68 575.13 250.55 612.69C269.03 612.84 287.5 612.75 305.98 612.73C307.35 612.54 309.93 612.82 309.38 614.88C309.34 623.78 309.36 632.69 309.36 641.59C281.11 641.72 252.86 641.58 224.61 641.66C224.53 594.45 224.65 547.23 224.54 500.01Z" fill="#648BF0"/>
<path d="M339.16 500C355.09 499.98 371.02 500.03 386.95 499.97C400.43 500.01 413.9 500.01 427.37 499.97H428.25C428.23 509.17 428.15 518.37 428.3 527.58C407.12 527.95 385.93 527.57 364.75 527.77C364.75 536.17 364.74 544.57 364.74 552.98C364.66 554.23 364.93 555.41 365.56 556.52C383.89 556.22 402.22 556.44 420.55 556.4C420.55 565.53 420.52 574.66 420.56 583.79C402.29 583.82 384.03 583.84 365.76 583.78C365.5 584.28 364.98 585.28 364.72 585.78C364.76 594.99 364.75 604.21 364.73 613.43C386.09 613.85 407.48 613.52 428.86 613.59C428.96 622.94 428.92 632.3 428.88 641.65C399.02 641.69 369.17 641.53 339.31 641.73C339.04 594.49 339.34 547.24 339.16 500Z" fill="#648BF0"/>
</svg>
