<svg width="26" height="27" viewBox="0 0 26 27" fill="none" xmlns="http://www.w3.org/2000/svg">
<path fill-rule="evenodd" clip-rule="evenodd" d="M25.3752 12.827C25.3086 9.59087 23.9824 6.50791 21.6778 4.23207C19.3732 1.95623 16.2715 0.666535 13.0307 0.636522C9.78991 0.606509 6.66489 1.83855 4.31844 4.07131C1.97199 6.30408 0.588728 9.36193 0.462037 12.5963C0.462037 12.7784 0.462037 12.9606 0.462037 13.1427C0.460787 15.3914 1.07914 17.5969 2.24937 19.518L0 26.1482L6.90614 23.9503C8.79736 24.988 10.9258 25.5181 13.0834 25.4886C15.2411 25.4592 17.3542 24.8713 19.2163 23.7823C21.0785 22.6934 22.626 21.1406 23.7076 19.2758C24.7892 17.4109 25.368 15.2978 25.3874 13.1427L25.3752 12.827ZM12.9125 23.5253C10.8634 23.5297 8.85855 22.9298 7.14932 21.8009L3.1248 23.0881L4.42575 19.2265C3.13173 17.4658 2.43327 15.339 2.43174 13.1549C2.43345 12.8181 2.45373 12.4816 2.49252 12.147C2.76628 9.55881 3.99564 7.16529 5.94076 5.43336C7.88589 3.70143 10.4073 2.75531 13.0131 2.77957C15.6188 2.80384 18.1221 3.79675 20.0346 5.5646C21.947 7.33245 23.1315 9.74846 23.3569 12.3413C23.3569 12.6084 23.3569 12.8756 23.3569 13.1549C23.3376 15.9141 22.2257 18.5535 20.2642 20.4966C18.3027 22.4397 15.651 23.5285 12.8882 23.5253H12.9125Z" fill="white"/>
<path fill-rule="evenodd" clip-rule="evenodd" d="M18.6028 15.632C18.2866 15.4863 16.7911 14.7455 16.5115 14.6484C16.2318 14.5512 16.0251 14.4906 15.8184 14.7941C15.6117 15.0977 15.0281 15.7899 14.8579 16.0085C14.6877 16.227 14.5053 16.2392 14.1891 16.0813C13.2944 15.7297 12.4706 15.2195 11.7574 14.5755C11.0909 13.9661 10.5174 13.2624 10.0552 12.4869C9.88497 12.1833 10.0552 12.0255 10.2011 11.8676C10.347 11.7097 10.4929 11.5154 10.651 11.3454L10.7726 11.1997C10.7726 11.0783 10.8942 10.9811 10.955 10.8354C11.0031 10.7546 11.0285 10.6623 11.0285 10.5683C11.0285 10.4742 11.0031 10.3819 10.955 10.3011C10.882 10.1554 10.2741 8.66176 10.0187 8.05459C9.76339 7.44743 9.50804 7.55673 9.32566 7.55673C9.14328 7.55673 8.94877 7.55673 8.74207 7.55673C8.58762 7.5599 8.43549 7.59497 8.29528 7.65975C8.15508 7.72454 8.02982 7.81764 7.92742 7.93317C7.58231 8.25875 7.30894 8.65258 7.12472 9.08956C6.9405 9.52653 6.84946 9.99705 6.85745 10.4711C6.86234 10.8208 6.91553 11.1681 7.01552 11.5033C7.25689 12.2574 7.62711 12.964 8.10979 13.5919C9.37808 15.5816 11.1873 17.1695 13.3259 18.17C16.4264 19.3843 16.4264 18.9714 16.9735 18.9228C17.3991 18.8415 17.8025 18.6705 18.1568 18.4214C18.5111 18.1722 18.8082 17.8505 19.0283 17.4778C19.2268 17.0279 19.2902 16.5301 19.2107 16.0449C19.1134 15.8627 18.9067 15.7899 18.6028 15.632Z" fill="white"/>
</svg>
