<svg width="26" height="26" viewBox="0 0 26 26" fill="none" xmlns="http://www.w3.org/2000/svg">
<path d="M12.6815 2.91893C16.0738 2.91893 16.475 2.91893 17.8125 2.99179C18.6137 3.00513 19.407 3.15291 20.1591 3.42895C20.7101 3.6321 21.2086 3.95572 21.6182 4.37612C22.0445 4.78074 22.3694 5.27994 22.5665 5.83331C22.8547 6.58544 23.0031 7.38379 23.0042 8.18911C23.065 9.52487 23.0772 9.9256 23.0772 13.3136C23.0772 16.7016 23.0772 17.0902 23.0042 18.4259C23.0031 19.2312 22.8547 20.0296 22.5665 20.7817C22.3694 21.3351 22.0445 21.8343 21.6182 22.2389C21.2086 22.6593 20.7101 22.9829 20.1591 23.1861C19.407 23.4621 18.6137 23.6099 17.8125 23.6232C16.475 23.684 16.0738 23.6961 12.6815 23.6961C9.28924 23.6961 8.888 23.6961 7.55054 23.6232C6.74933 23.6099 5.95607 23.4621 5.20392 23.1861C4.65296 22.9829 4.15444 22.6593 3.74486 22.2389C3.32264 21.8309 2.9984 21.3327 2.79649 20.7817C2.50828 20.0296 2.35997 19.2312 2.35879 18.4259C2.298 17.0902 2.28584 16.6894 2.28584 13.3136C2.28584 9.93775 2.28584 9.52487 2.35879 8.18911C2.35997 7.38379 2.50828 6.58544 2.79649 5.83331C2.9984 5.2823 3.32264 4.78411 3.74486 4.37612C4.15444 3.95572 4.65296 3.6321 5.20392 3.42895C5.95607 3.15291 6.74933 3.00513 7.55054 2.99179C8.888 2.99179 9.28924 2.91893 12.6815 2.91893ZM12.6815 0.635986C9.2406 0.635986 8.80291 0.635983 7.45329 0.708843C6.40131 0.729412 5.36074 0.930698 4.37714 1.30387C3.53871 1.62157 2.77524 2.1093 2.1349 2.73629C1.49455 3.36328 0.991184 4.11594 0.656543 4.94686C0.293567 5.93175 0.0963856 6.96987 0.0729492 8.01911C0.0121557 9.37916 0 9.80417 0 13.2529C0 16.7016 -2.9668e-06 17.1266 0.0729492 18.4745C0.0963856 19.5237 0.293567 20.5618 0.656543 21.5467C0.978348 22.3931 1.48034 23.1596 2.12777 23.7932C2.75963 24.4401 3.52811 24.9379 4.37714 25.2504C5.36074 25.6236 6.40131 25.8249 7.45329 25.8455C8.80291 25.9062 9.2406 25.9183 12.6815 25.9183C16.1224 25.9183 16.5601 25.9183 17.9097 25.8455C18.9655 25.8234 20.0098 25.6222 20.9981 25.2504C21.8427 24.9363 22.6069 24.4386 23.2353 23.7932C23.8827 23.1596 24.3846 22.3931 24.7065 21.5467C25.0694 20.5618 25.2666 19.5237 25.2901 18.4745C25.3509 17.1266 25.363 16.6894 25.363 13.2529C25.363 9.81631 25.363 9.37916 25.2901 8.01911C25.2666 6.96987 25.0694 5.93175 24.7065 4.94686C24.3713 4.11825 23.8691 3.36729 23.2312 2.74061C22.5932 2.11392 21.8331 1.6249 20.9981 1.30387C20.0098 0.932106 18.9655 0.73089 17.9097 0.708843C16.5601 0.708843 16.1224 0.635986 12.6815 0.635986Z" fill="white"/>
<path d="M12.6815 6.78052C11.3926 6.78052 10.1326 7.16227 9.06083 7.87746C7.98911 8.59266 7.15378 9.60919 6.66052 10.7985C6.16726 11.9878 6.03819 13.2965 6.28965 14.5591C6.54112 15.8217 7.16181 16.9815 8.07324 17.8917C8.98466 18.802 10.1459 19.4219 11.4101 19.6731C12.6743 19.9242 13.9846 19.7953 15.1755 19.3027C16.3663 18.81 17.3841 17.9758 18.1002 16.9054C18.8163 15.8351 19.1986 14.5766 19.1986 13.2893C19.1986 12.4346 19.03 11.5882 18.7025 10.7985C18.375 10.0088 17.8949 9.29131 17.2898 8.68691C16.6846 8.08251 15.9662 7.60309 15.1755 7.27599C14.3848 6.94889 13.5373 6.78052 12.6815 6.78052ZM12.6815 17.503C11.8441 17.503 11.0256 17.2549 10.3295 16.79C9.63342 16.3251 9.09112 15.6644 8.77123 14.8915C8.45133 14.1187 8.36824 13.2683 8.53249 12.4483C8.69674 11.6282 9.10092 10.8753 9.69389 10.2848C10.2869 9.69425 11.0419 9.29272 11.8635 9.13104C12.6851 8.96936 13.5362 9.05478 14.3092 9.37649C15.0821 9.6982 15.7421 10.2417 16.2056 10.9383C16.669 11.6348 16.9152 12.453 16.9128 13.2893C16.9128 13.8437 16.8032 14.3926 16.5904 14.9047C16.3776 15.4167 16.0658 15.8817 15.6727 16.2732C15.2796 16.6646 14.8131 16.9747 14.2998 17.1858C13.7865 17.3968 13.2366 17.5046 12.6815 17.503Z" fill="white"/>
<path d="M20.9738 6.56179C20.9714 6.86147 20.8802 7.15373 20.7117 7.40175C20.5433 7.64977 20.3051 7.84243 20.0272 7.95546C19.7493 8.06849 19.4441 8.09683 19.15 8.03689C18.856 7.97696 18.5864 7.83145 18.375 7.61869C18.1637 7.40593 18.0201 7.13545 17.9625 6.84134C17.9048 6.54723 17.9356 6.24265 18.051 5.966C18.1664 5.68934 18.3612 5.45298 18.6108 5.28672C18.8605 5.12046 19.1539 5.03175 19.4539 5.03174C19.6545 5.03173 19.8531 5.07139 20.0383 5.14844C20.2235 5.22548 20.3916 5.33837 20.5329 5.48061C20.6742 5.62285 20.7859 5.79161 20.8616 5.97717C20.9372 6.16274 20.9754 6.36143 20.9738 6.56179Z" fill="white"/>
</svg>
