<svg width="24" height="20" viewBox="0 0 24 20" fill="none" xmlns="http://www.w3.org/2000/svg">
<path d="M0 17.7303C2.1619 19.1515 4.66319 19.9353 7.23021 19.9962C9.79723 20.057 12.3311 19.3925 14.5547 18.0753C16.7783 16.7581 18.6059 14.839 19.8376 12.5279C21.0694 10.2168 21.6578 7.6027 21.5385 4.9716C22.5002 4.25447 23.3331 3.37132 24 2.36159C23.1006 2.76704 22.1473 3.03297 21.1716 3.15066C22.2014 2.52213 22.9716 1.52911 23.3373 0.358559C22.3662 0.941965 21.3059 1.35242 20.2012 1.57252C19.4576 0.769287 18.4771 0.239124 17.4109 0.0637195C16.3447 -0.111685 15.2518 0.0774013 14.3006 0.60183C13.3494 1.12626 12.5927 1.95694 12.1471 2.96592C11.7014 3.9749 11.5915 5.1062 11.8343 6.18556C9.87847 6.08455 7.96508 5.5634 6.218 4.65583C4.47093 3.74825 2.9291 2.47448 1.6923 0.916971C1.06036 2.0277 0.866441 3.34428 1.15028 4.59694C1.43411 5.8496 2.17423 6.94349 3.21894 7.65446C2.43486 7.63074 1.66778 7.41425 0.982233 7.0232C0.970296 8.19989 1.35839 9.34411 2.07975 10.2591C2.80111 11.1741 3.8107 11.8027 4.93493 12.0369C4.20982 12.2421 3.44805 12.2712 2.71007 12.1218C3.02394 13.1266 3.63672 14.0054 4.46239 14.6346C5.28807 15.2639 6.28515 15.612 7.3136 15.6302C6.29014 16.4583 5.1169 17.0703 3.86161 17.4308C2.60632 17.7912 1.29386 17.8931 0 17.7303Z" fill="white"/>
</svg>
